<?xml version="1.0" standalone="no"?>
<!DOCTYPE svg PUBLIC "-//W3C//DTD SVG 20010904//EN"
 "http://www.w3.org/TR/2001/REC-SVG-20010904/DTD/svg10.dtd">
<svg version="1.0" xmlns="http://www.w3.org/2000/svg"
 width="300.000000pt" height="300.000000pt" viewBox="0 0 300.000000 300.000000"
 preserveAspectRatio="xMidYMid meet">
<metadata>
Created by potrace 1.14, written by Peter Selinger 2001-2017
</metadata>
<g transform="translate(0.000000,300.000000) scale(0.100000,-0.100000)"
fill="#000000" stroke="none">
<path d="M1265 2849 c-278 -51 -525 -178 -715 -369 -114 -113 -131 -133 -192
-225 -112 -171 -187 -366 -215 -566 -15 -100 -8 -347 11 -444 74 -363 274
-667 581 -883 71 -49 235 -128 336 -161 160 -53 274 -70 444 -66 157 3 162 4
288 30 234 48 469 178 651 359 117 116 132 133 193 228 112 173 182 363 211
573 9 67 8 296 -1 369 -38 279 -177 556 -382 762 -55 55 -131 124 -170 152
-145 107 -359 200 -546 238 -124 25 -367 26 -494 3z m-214 -907 c73 -28 121
-101 120 -184 0 -175 -218 -258 -335 -128 -68 75 -69 183 -4 260 50 59 143 81
219 52z m1074 -16 c70 -42 107 -138 84 -221 -14 -48 -72 -111 -117 -126 -150
-51 -289 71 -258 225 11 59 70 125 126 142 50 16 118 7 165 -20z m-1050 -768
c149 -159 323 -226 509 -197 113 18 236 87 330 185 61 64 97 78 148 57 56 -22
75 -74 53 -143 -7 -23 -127 -137 -189 -179 -58 -40 -145 -83 -211 -104 -168
-55 -375 -38 -538 44 -123 62 -272 189 -297 253 -19 51 7 109 58 129 49 20 88
7 137 -45z"/>
</g>
</svg>
