<?xml version="1.0" standalone="no"?>
<!DOCTYPE svg PUBLIC "-//W3C//DTD SVG 1.1//EN" "http://www.w3.org/Graphics/SVG/1.1/DTD/svg11.dtd" >
<svg xmlns="http://www.w3.org/2000/svg" xmlns:xlink="http://www.w3.org/1999/xlink" version="1.1">
<metadata>
Created by FontForge 20190801 at Thu Feb 17 17:47:20 2022
 By www-data
Copyright (C)2016 Commercial Type.
</metadata>
<defs>
<font id="CanelaThinItalicTrial" horiz-adv-x="209" >
  <font-face 
    font-family="CanelaThinItalicTrial"
    font-weight="100"
    font-style="italic"
    font-stretch="normal"
    units-per-em="1000"
    panose-1="0 0 0 0 0 0 0 0 0 0"
    ascent="775"
    descent="-225"
    x-height="475"
    cap-height="732"
    bbox="-103 -225 823 779"
    underline-thickness="20"
    underline-position="-80"
    slope="-9"
    unicode-range="U+0020-201D"
  />
<missing-glyph horiz-adv-x="161" 
 />
    <glyph glyph-name=".notdef" horiz-adv-x="161" 
 />
    <glyph glyph-name=".null" horiz-adv-x="0" 
 />
    <glyph glyph-name="nonmarkingreturn" horiz-adv-x="333" 
 />
    <glyph glyph-name="space" unicode=" " horiz-adv-x="130" 
 />
    <glyph glyph-name="exclam" unicode="!" horiz-adv-x="200" 
d="M231 732v-2l-136 -536h-14l90 536l1 2h59zM59 -3q-19 0 -33 14t-14 33t14 33t33 14t33 -13.5t14 -33.5t-14 -33.5t-33 -13.5z" />
    <glyph glyph-name="quotedbl" unicode="&#x22;" horiz-adv-x="249" 
d="M119 542h-10l12 190h70zM239 542h-10l12 190h70z" />
    <glyph glyph-name="quotesingle" unicode="'" horiz-adv-x="129" 
d="M119 542h-10l12 190h70z" />
    <glyph glyph-name="comma" unicode="," 
d="M-21 -147l-8 10q42 27 70.5 60t28.5 59t-32 66v2l51 42q36 -27 36 -68q0 -88 -146 -171z" />
    <glyph glyph-name="hyphen" unicode="-" horiz-adv-x="287" 
d="M260 263h-215l8 40h214z" />
    <glyph glyph-name="period" unicode="." 
d="M82 -3q-19 0 -33 14t-14 33t14 33t33 14q20 0 33.5 -13.5t13.5 -33.5t-13.5 -33.5t-33.5 -13.5z" />
    <glyph glyph-name="zero" unicode="0" horiz-adv-x="581" 
d="M581 461q0 -124 -48.5 -235t-126.5 -176t-161 -65q-91 0 -145.5 78t-54.5 208q0 124 48.5 235t126.5 176t161 65q91 0 145.5 -78t54.5 -208zM246 5q52 0 97.5 33t77.5 86t55 119t34 133.5t11 128.5q0 113 -38 167.5t-103 54.5q-64 0 -118 -49.5t-87 -126t-51.5 -162
t-18.5 -162.5q0 -113 38 -167.5t103 -54.5z" />
    <glyph glyph-name="one" unicode="1" horiz-adv-x="223" 
d="M227 747l-109 -616q-15 -85 2 -129v-2h-101v2q32 47 46 130l87 494h-71v2q84 40 142 119h4z" />
    <glyph glyph-name="two" unicode="2" horiz-adv-x="426" 
d="M333 0h-363v10q235 200 331 332t96 238q0 77 -32 112t-81 35q-15 0 -29 -3.5t-24 -7t-23 -14.5t-19.5 -17t-19.5 -23t-18.5 -24.5t-20.5 -30t-21 -30.5l-8 2l43 136q71 32 142 32q170 0 170 -168q0 -62 -26 -123t-82 -126.5t-128 -130.5t-178 -148h194q34 0 60.5 13
t40.5 27t41 46l6 -4z" />
    <glyph glyph-name="three" unicode="3" horiz-adv-x="449" 
d="M169 -15q-97 0 -145 37l-10 132l8 2q33 -83 68.5 -117t88.5 -34q88 0 137.5 75t49.5 175q0 171 -136 171q-72 0 -125 -46l-8 10l307 280h-274l27 52h327l-2 -10l-305 -276q25 9 61 9q76 0 129.5 -50.5t53.5 -147.5q0 -66 -26.5 -124t-85.5 -98t-140 -40z" />
    <glyph glyph-name="four" unicode="4" horiz-adv-x="456" 
d="M239 0v2q26 42 42 130l10 58h-291l2 10l408 532h65l-442 -520h262l50 278h51l-50 -278h77l-10 -22h-70l-11 -59q-9 -53 -7.5 -78t13.5 -51v-2h-99z" />
    <glyph glyph-name="five" unicode="5" horiz-adv-x="468" 
d="M170 -15q-98 0 -146 37l-10 132l8 2q33 -83 68.5 -117t90.5 -34q63 0 106.5 38.5t61 94.5t17.5 124q0 186 -147 186q-75 0 -124 -46l-9 6l114 324h303l-18 -52h-281l-85 -241q50 29 114 29q91 0 142 -56t51 -153q0 -113 -66.5 -193.5t-189.5 -80.5z" />
    <glyph glyph-name="six" unicode="6" horiz-adv-x="480" 
d="M216 -15q-82 0 -131.5 63t-49.5 166q0 71 24.5 145t73.5 147t134 137t194 104l4 -10q-112 -51 -193.5 -136t-127.5 -187q61 72 156 72q76 0 121 -52t45 -146q0 -124 -74.5 -213.5t-175.5 -89.5zM218 5q85 0 137.5 85.5t52.5 197.5q0 167 -129 167q-103 0 -156 -97
q-30 -88 -30 -170q0 -90 33.5 -136.5t91.5 -46.5z" />
    <glyph glyph-name="seven" unicode="7" horiz-adv-x="414" 
d="M107 0h-67q132 341 397 680h-333l19 52h364l-1 -10q-259 -358 -379 -722z" />
    <glyph glyph-name="eight" unicode="8" horiz-adv-x="440" 
d="M206 -15q-80 0 -136 48.5t-56 125.5q0 73 48.5 133.5t138.5 84.5q-97 89 -97 187q0 83 53 133t129 50q70 0 112.5 -43.5t42.5 -113.5q0 -65 -38.5 -118.5t-120.5 -81.5q124 -111 124 -216q0 -81 -58 -135t-142 -54zM210 5q68 0 109 42t41 107q0 20 -3.5 38.5t-14.5 37
t-16.5 29t-26.5 30.5t-25.5 25t-32 28t-29.5 25q-154 -56 -154 -203q0 -72 42 -115.5t110 -43.5zM266 404l7 -6q124 57 124 194q0 63 -28 99t-85 36q-60 0 -97 -37.5t-37 -99.5q0 -56 28.5 -95.5t87.5 -90.5z" />
    <glyph glyph-name="nine" unicode="9" horiz-adv-x="480" 
d="M69 -15l-4 10q112 51 193.5 136t127.5 187q-61 -72 -156 -72q-76 0 -121 52t-45 146q0 124 74.5 213.5t175.5 89.5q82 0 131.5 -63t49.5 -166q0 -71 -24.5 -145t-73.5 -147t-134 -137t-194 -104zM253 277q101 0 154 97q30 88 30 170q0 90 -33.5 136.5t-91.5 46.5
q-85 0 -137.5 -83.5t-52.5 -195.5q0 -171 131 -171z" />
    <glyph glyph-name="question" unicode="?" horiz-adv-x="370" 
d="M103 194h-16q16 55 51.5 102.5t74 80.5t75.5 67t61 78t24 96q0 111 -99 111q-51 0 -91.5 -32.5t-93.5 -107.5l-7 3l44 123q73 32 152 32q72 0 113 -33.5t41 -98.5q0 -51 -26.5 -94.5t-68 -78t-85.5 -68t-86.5 -80.5t-62.5 -100zM69 -3q-19 0 -33 14t-14 33t14 33t33 14
t33 -13.5t14 -33.5t-14 -33.5t-33 -13.5z" />
    <glyph glyph-name="A" unicode="A" horiz-adv-x="465" 
d="M330 296l-31 350l-160 -350h191zM68 2v-2h-122v2q35 28 54 55t47 88l276 594h19l56 -617q4 -49 13 -72t29 -48v-2h-129v2q42 38 34 125l-13 149h-202l-57 -124q-20 -45 -20.5 -87.5t15.5 -62.5z" />
    <glyph glyph-name="B" unicode="B" horiz-adv-x="500" 
d="M196 0h-172v2q26 42 42 130l84 469q14 78 -6 129v2q21 0 68 1.5t85 1.5q57 0 97 -15t60 -40.5t28 -51.5t8 -57q0 -75 -43 -126.5t-118 -64.5q54 -8 93 -49t39 -116q0 -91 -64.5 -153t-200.5 -62zM223 709l-57 -318h95q91 0 133 53.5t42 131.5q0 69 -34.5 104.5
t-111.5 35.5q-55 0 -67 -7zM198 20q97 0 150 50.5t53 150.5q0 69 -31 109.5t-114 40.5h-93l-62 -344q33 -7 97 -7z" />
    <glyph glyph-name="C" unicode="C" horiz-adv-x="598" 
d="M565 199l-40 -146q-29 -24 -88 -46t-129 -22q-126 0 -190.5 84.5t-64.5 230.5q0 117 46 219t130.5 165t187.5 63q56 0 106.5 -18.5t72.5 -34.5l11 -139l-8 -2q-36 92 -84 133t-112 41q-88 0 -155 -66t-99 -165.5t-32 -214.5q0 -121 50.5 -198.5t142.5 -77.5
q75 0 132 49.5t113 146.5z" />
    <glyph glyph-name="D" unicode="D" horiz-adv-x="583" 
d="M24 0v2q26 42 42 130l84 469q14 78 -6 129v2q55 0 88.5 1.5t84.5 1.5q259 0 259 -291q0 -188 -108.5 -316t-280.5 -128h-163zM301 716h-77l-126 -699l86 2q83 2 147.5 40.5t103 101.5t58 137.5t19.5 155.5q0 262 -211 262z" />
    <glyph glyph-name="E" unicode="E" horiz-adv-x="496" 
d="M460 162l-60 -162h-376v2q25 39 42 130l84 469q14 78 -6 129v2h326l11 -145l-8 -2q-33 70 -56 96t-61 27l-132 4l-60 -334h97q8 0 15 2.5t14.5 8t13 10.5t13 15t12 15.5t12.5 17t11 16.5h8l-29 -185h-8q-12 31 -17.5 43.5t-18 24.5t-29.5 12h-98l-61 -340l162 5
q14 0 26 2t24 7t20 8t20 13.5t17.5 15t19.5 20t19 21.5t22 26.5t23 28.5z" />
    <glyph glyph-name="F" unicode="F" horiz-adv-x="446" 
d="M125 2v-2h-101v2q26 42 42 130l84 469q14 78 -6 129v2h336l11 -145l-8 -2q-33 70 -56 96t-61 27l-144 4l-58 -324h104q8 0 15 2.5t14.5 8t13 10.5t13 15t12 15.5t12.5 17t11 16.5h8l-29 -185h-8q-22 56 -34.5 68t-30.5 12h-105l-42 -237q-14 -81 7 -129z" />
    <glyph glyph-name="G" unicode="G" horiz-adv-x="616" 
d="M594 322q-26 -42 -42 -130l-19 -105q-4 -3 -26.5 -22.5t-36.5 -29t-40 -23.5t-56 -20.5t-66 -6.5q-124 0 -189.5 85t-65.5 231q0 116 45.5 218t130 165t188.5 63q56 0 106.5 -18.5t72.5 -34.5l11 -139l-8 -2q-36 92 -84 133t-112 41q-88 0 -155 -66t-99 -165.5
t-32 -213.5q0 -126 46 -201.5t149 -75.5q163 0 190 208q9 63 -9 109v2h101v-2z" />
    <glyph glyph-name="H" unicode="H" horiz-adv-x="583" 
d="M24 0v2q26 42 42 130l84 469q14 78 -6 129v2h101v-2q-26 -42 -42 -130l-38 -212h307l38 213q14 78 -6 129v2h101v-2q-26 -42 -42 -130l-84 -469q-14 -78 6 -129v-2h-101v2q26 42 42 130l42 236h-307l-42 -237q-14 -78 6 -129v-2h-101z" />
    <glyph glyph-name="I" unicode="I" horiz-adv-x="224" 
d="M125 0h-101v2q26 42 42 130l84 469q14 78 -6 129v2h101v-2q-26 -42 -42 -130l-84 -469q-14 -78 6 -129v-2z" />
    <glyph glyph-name="J" unicode="J" horiz-adv-x="312" 
d="M211 123q-25 -138 -124 -138q-42 0 -79 23l9 125l8 2q20 -69 35.5 -99.5t37.5 -30.5q39 0 55 88l91 508q14 78 -6 129v2h101v-2q-26 -42 -42 -130z" />
    <glyph glyph-name="K" unicode="K" horiz-adv-x="498" 
d="M24 0v2q26 42 42 130l84 469q14 78 -6 129v2h101v-2q-26 -42 -42 -130l-84 -469q-14 -78 6 -129v-2h-101zM467 0h-90l-200 361l213 248q20 24 29.5 36.5t17.5 28t6.5 28.5t-9.5 28v2h126v-2q-45 -25 -74.5 -50.5t-65.5 -68.5l-198 -228l160 -287q20 -38 37 -57t48 -37v-2
z" />
    <glyph glyph-name="L" unicode="L" horiz-adv-x="475" 
d="M381 0h-357v2q26 42 42 130l84 469q14 78 -6 129v2h101v-2q-26 -42 -42 -130l-104 -585l161 9q38 2 72 23t53.5 43t60.5 75l5 -3z" />
    <glyph glyph-name="M" unicode="M" horiz-adv-x="704" 
d="M108 0h-102v2q32 45 43.5 76.5t22.5 89.5l72 403q12 57 9 89t-31 70v2h93l110 -632l335 632h94v-2q-28 -24 -42.5 -47.5t-19 -41.5t-14.5 -73l-78 -437q-14 -78 6 -129v-2h-101v2q26 42 42 130l92 515l-332 -626h-20l-109 620l-84 -473q-11 -52 -9 -86.5t23 -79.5v-2z
" />
    <glyph glyph-name="N" unicode="N" horiz-adv-x="597" 
d="M456 -3l-276 650l-87 -483q-11 -51 -9 -84t23 -78v-2h-101v2q32 45 43 75t22 87l73 404v-1q12 58 9.5 92t-30.5 71v2h80l267 -630l84 466q11 51 9 84t-23 78v2h101v-2q-32 -46 -43.5 -76.5t-21.5 -85.5l-102 -568z" />
    <glyph glyph-name="O" unicode="O" horiz-adv-x="662" 
d="M655 437q0 -118 -49.5 -222.5t-133 -167t-178.5 -62.5q-106 0 -173.5 87.5t-67.5 222.5q0 118 49.5 222.5t133 167t178.5 62.5q106 0 173.5 -87.5t67.5 -222.5zM117 276q0 -122 47 -196.5t137 -74.5q88 0 155.5 65t101 166.5t33.5 219.5q0 122 -47 196.5t-137 74.5
q-88 0 -155.5 -65t-101 -166.5t-33.5 -219.5z" />
    <glyph glyph-name="P" unicode="P" horiz-adv-x="476" 
d="M24 0v2q26 42 42 130l84 469q14 78 -6 129v2h160q57 0 97 -14t61 -39.5t29.5 -55t8.5 -66.5q0 -116 -75 -186.5t-193 -70.5h-83l-30 -169q-14 -78 6 -129v-2h-101zM305 712q-46 0 -82 -2l-70 -390h87q55 0 95 21t61.5 57t31.5 76.5t10 87.5q0 78 -28 114t-105 36z" />
    <glyph glyph-name="Q" unicode="Q" horiz-adv-x="662" 
d="M655 437q0 -116 -47.5 -218.5t-128 -165.5t-173.5 -67q68 -75 178 -75q57 0 91 19l-19 -58q-31 -19 -80 -19q-64 0 -116 34.5t-82 98.5q-100 7 -162.5 93t-62.5 216q0 118 49.5 222.5t133 167t178.5 62.5q106 0 173.5 -87.5t67.5 -222.5zM117 276q0 -122 47 -196.5
t137 -74.5q88 0 155.5 65t101 166.5t33.5 219.5q0 122 -47 196.5t-137 74.5q-88 0 -155.5 -65t-101 -166.5t-33.5 -219.5z" />
    <glyph glyph-name="R" unicode="R" horiz-adv-x="494" 
d="M293 711q-49 0 -70 -1l-61 -337h94q83 0 124.5 58t41.5 144q0 71 -31.5 103.5t-97.5 32.5zM24 0v2q26 42 42 130l84 469q14 78 -6 129v2h158q182 0 182 -159q0 -83 -49 -140t-116 -72l68 -257q12 -47 28 -68t47 -34v-2h-104l-92 353h-107l-40 -222q-14 -78 6 -129v-2
h-101z" />
    <glyph glyph-name="S" unicode="S" horiz-adv-x="438" 
d="M443 711l7 -146l-9 -2q-24 93 -61 128.5t-86 35.5q-56 0 -90.5 -37t-34.5 -95q0 -29 7.5 -54t27.5 -52t32 -40.5t41 -44.5q35 -37 54 -61.5t36.5 -66.5t17.5 -87q0 -96 -59.5 -150t-150.5 -54q-89 0 -164 46l-7 158l8 2q32 -104 76 -145t102 -41q66 0 106.5 48.5
t40.5 117.5q0 40 -17.5 78.5t-35.5 60t-54 58.5q-36 39 -53.5 60t-35.5 61t-18 81q0 86 55 131.5t131 45.5q79 0 134 -36z" />
    <glyph glyph-name="T" unicode="T" horiz-adv-x="556" 
d="M286 0h-101v2q26 42 42 130l104 582l-93 -4q-42 -1 -70.5 -29t-93.5 -128l-8 4l60 175h470v-177l-8 -2q-28 93 -46.5 123.5t-47.5 32.5l-110 4l-104 -582q-14 -78 6 -129v-2z" />
    <glyph glyph-name="U" unicode="U" horiz-adv-x="542" 
d="M252 -15q-42 0 -78.5 14t-65 41.5t-40 75.5t-0.5 110l68 375q14 78 -6 129v2h101v-2q-26 -42 -42 -130l-67 -371q-20 -111 21 -166.5t116 -55.5q54 0 93.5 30t57.5 69.5t28 90.5l70 371q11 52 9 84.5t-23 77.5v2h102v-2q-32 -45 -43 -75t-22 -87l-70 -371q-8 -42 -22 -77
t-38 -67t-62 -50t-87 -18z" />
    <glyph glyph-name="V" unicode="V" horiz-adv-x="461" 
d="M176 -8h-20l-34 584q-4 66 -11.5 97t-22.5 57v2h116v-2q-36 -53 -30 -155l27 -485l231 487q46 96 15 153v2h107v-2q-29 -22 -44.5 -47t-51.5 -100z" />
    <glyph glyph-name="W" unicode="W" horiz-adv-x="730" 
d="M173 -8h-20l-33 584q-3 67 -10.5 98t-21.5 56v2h113v-2q-35 -52 -29 -155l26 -476l213 476v1q-5 104 -34 154v2h116v-2q-36 -53 -30 -155l26 -477l212 479q44 100 15 153v2h107v-2q-30 -23 -47 -49t-49 -98l-263 -591h-20l-30 536z" />
    <glyph glyph-name="X" unicode="X" horiz-adv-x="494" 
d="M107 2v-2h-119v2q31 25 50 49.5t57 82.5l151 232l-73 236q-19 60 -30.5 85.5t-32.5 42.5v2h127v-2q-33 -41 -8 -121l63 -203l109 173q62 98 26 151v2h119v-2q-32 -25 -52 -50.5t-55 -81.5l-139 -217l77 -251q29 -96 68 -128v-2h-130v2q31 39 6 121l-67 218l-121 -188
q-62 -98 -26 -151z" />
    <glyph glyph-name="Y" unicode="Y" horiz-adv-x="466" 
d="M128 0v2q26 39 38 68.5t21 79.5l34 188l-66 266q-23 92 -58 126v2h123v-2q-30 -35 -10 -119l58 -249l138 228q52 86 15 140v2h114v-2q-59 -63 -96 -124l-166 -273l-32 -183q-9 -51 -7.5 -80t15.5 -68l-1 -2h-120z" />
    <glyph glyph-name="Z" unicode="Z" horiz-adv-x="476" 
d="M372 0h-389v11l483 703l-160 -5q-62 -2 -91.5 -25.5t-90.5 -108.5l-9 -12l-8 3l61 166h364v-11l-482 -705l179 8q68 4 104 35t101 132l8 -3z" />
    <glyph glyph-name="a" unicode="a" horiz-adv-x="437" 
d="M130 29q29 0 59 24t57 68.5t46 82t41 88.5l37 140q-23 35 -72 35q-59 0 -112 -54.5t-82 -133t-29 -153.5q0 -97 55 -97zM254 -9l58 211q-98 -217 -208 -217q-39 0 -61.5 32t-22.5 94q0 93 42.5 181t114.5 143t150 55q46 0 79 -18l24 18h4l-100 -382q-13 -39 -9.5 -61
t34.5 -36v-1z" />
    <glyph glyph-name="b" unicode="b" horiz-adv-x="446" 
d="M172 -15q-67 0 -107.5 48.5t-18.5 150.5l95 441q10 49 6 72.5t-24 46.5v2l100 33l-105 -482q83 193 202 193q106 0 106 -149q0 -140 -75 -248t-179 -108zM178 3q56 0 101 54t67 129.5t22 151.5q0 118 -70 118q-43 0 -93.5 -52.5t-100.5 -177.5l-11 -51q-19 -90 8.5 -131
t76.5 -41z" />
    <glyph glyph-name="c" unicode="c" horiz-adv-x="374" 
d="M319 136l10 -4q-22 -68 -64.5 -107.5t-101.5 -39.5q-68 0 -105.5 51.5t-37.5 134.5q0 123 75 221t176 98q51 0 87 -26l8 -98l-10 -2q-23 51 -46.5 79.5t-57.5 28.5q-60 0 -117 -77t-57 -202q0 -165 110 -165q78 0 131 108z" />
    <glyph glyph-name="d" unicode="d" horiz-adv-x="447" 
d="M135 29q30 0 59.5 23t56.5 66t45.5 79t41.5 87l26 122q-3 22 -26.5 41.5t-65.5 19.5q-51 0 -97 -54.5t-71.5 -133.5t-25.5 -155q0 -95 57 -95zM271 -9l58 232q-46 -106 -102 -172t-118 -66q-89 0 -89 129q0 91 39 178.5t105 142.5t137 55q45 0 78 -14l32 149
q10 49 6 72.5t-24 46.5v2l100 33l-144 -671q-12 -39 -8.5 -61t33.5 -36v-1z" />
    <glyph glyph-name="e" unicode="e" horiz-adv-x="364" 
d="M276 472q-52 0 -100 -44t-75 -116q225 21 225 112q0 48 -50 48zM310 105q-26 -54 -68 -87t-92 -33q-60 0 -95 47t-35 125q0 126 80.5 229.5t185.5 103.5q39 0 63.5 -17t24.5 -50q0 -55 -66 -89.5t-211 -33.5q-19 -59 -19 -124q0 -151 97 -151q67 0 125 85z" />
    <glyph glyph-name="f" unicode="f" horiz-adv-x="257" 
d="M4 -165l133 622h-56l4 18h55l20 92q23 109 69 160.5t105 51.5q28 0 60 -17l7 -91l-4 -1q-27 46 -46.5 67t-43.5 21q-27 0 -49.5 -37.5t-44.5 -137.5l-23 -108h99l-4 -18h-99l-132 -622h-50z" />
    <glyph glyph-name="g" unicode="g" horiz-adv-x="393" 
d="M102 268q0 -50 14 -74.5t48 -24.5q54 0 92 57t38 147q0 51 -14 75t-48 24q-54 0 -92 -57.5t-38 -146.5zM327 -71q0 -61 -59.5 -107.5t-156.5 -46.5q-75 0 -123.5 29t-48.5 80t47 84.5t113 42.5q-43 22 -43 67q0 31 17.5 52t44.5 30q-34 14 -53 48t-19 74q0 78 60.5 143
t125.5 65q33 0 60 -16l140 24h1l-13 -59h-4l-108 23q42 -38 42 -103q0 -78 -60.5 -143t-125.5 -65q-18 0 -30 4q-44 -15 -44 -52q0 -52 104 -70q26 -5 43.5 -10.5t41 -16.5t36 -30.5t12.5 -46.5zM125 -200q76 0 121.5 32t45.5 78q0 17 -8.5 30t-17 20t-29.5 14t-29 8.5
t-33 6.5q-46 9 -63 16q-60 -11 -91.5 -41t-31.5 -71q0 -42 33.5 -67.5t102.5 -25.5z" />
    <glyph glyph-name="h" unicode="h" horiz-adv-x="462" 
d="M288 -9l78 367q9 40 -0.5 66.5t-38.5 26.5q-42 0 -100 -70t-123 -217l-8 -41q-15 -79 -3 -121v-2h-88v2q5 7 8.5 13.5t7.5 15.5t6.5 14.5t5.5 17t4.5 16.5t5 19.5t4.5 19.5l4.5 22.5l4.5 22.5l99 462q10 49 6 72.5t-24 46.5v2l100 33l-121 -551q51 118 113.5 190
t123.5 72q42 0 58.5 -36t2.5 -99l-51 -240q-14 -56 -6.5 -79.5t46.5 -27.5v-2z" />
    <glyph glyph-name="i" unicode="i" horiz-adv-x="188" 
d="M216 659q0 -17 -12 -29t-29 -12t-29 12t-12 29t12 29t29 12t29 -12t12 -29zM7 0v2q28 40 51 161l35 178q15 75 -18 119v2l96 33l-73 -372q-15 -79 -3 -121v-2h-88z" />
    <glyph glyph-name="j" unicode="j" horiz-adv-x="182" 
d="M211 659q0 -17 -12 -29t-29 -12t-29 12t-12 29t12 29t29 12t29 -12t12 -29zM-60 -210q44 33 63 128l85 423q15 75 -18 119v2l96 33l-108 -547q-13 -69 -44.5 -112t-71.5 -51z" />
    <glyph glyph-name="k" unicode="k" horiz-adv-x="392" 
d="M93 0h-88v2q5 7 8.5 13.5t7.5 15.5t6.5 14.5t5.5 17t4.5 16.5t5 19.5t4.5 19.5l4.5 22.5l4.5 22.5l99 462q10 49 6 72.5t-24 46.5v2l100 33l-132 -614q-15 -70 -17.5 -101.5t5.5 -61.5v-2zM270 0l-131 248l142 143q52 54 28 82v2h120v-2q-40 -14 -63 -31t-73 -67
l-107 -106l95 -177q21 -40 37 -58.5t42 -31.5v-2h-90z" />
    <glyph glyph-name="l" unicode="l" horiz-adv-x="188" 
d="M93 0h-88v2q5 7 8.5 13.5t7.5 15.5t6.5 14.5t5.5 17t4.5 16.5t5 19.5t4.5 19.5l4.5 22.5l4.5 22.5l99 462q10 49 6 72.5t-24 46.5v2l100 33l-132 -614q-15 -70 -17.5 -101.5t5.5 -61.5v-2z" />
    <glyph glyph-name="m" unicode="m" horiz-adv-x="689" 
d="M513 -9l81 367q10 37 0.5 65t-36.5 28q-41 0 -93.5 -70t-112.5 -218l-9 -40q-16 -76 -3 -121v-2h-87v2q8 12 14 23.5t11 29.5l7.5 27t8.5 36.5t8 38.5l45 201q10 39 1 66t-35 27q-40 0 -92 -69.5t-110 -214.5l-10 -44q-16 -76 -3 -121v-2h-88v2q5 7 8.5 13.5t7.5 15.5
t6.5 14.5t5.5 17t4.5 16.5t5 19.5t4.5 19.5l4.5 22.5l4.5 22.5l38 178q16 74 -18 119v2l100 33l-54 -244q45 109 99.5 174t110.5 65q39 0 54.5 -35.5t0.5 -99.5l-26 -116q47 115 102.5 183t113.5 68q41 0 57.5 -36t2.5 -99l-54 -240q-14 -56 -6.5 -79.5t46.5 -27.5v-2z" />
    <glyph glyph-name="n" unicode="n" horiz-adv-x="466" 
d="M290 -9l81 367q9 40 -0.5 66.5t-38.5 26.5q-42 0 -99.5 -70t-121.5 -214l-10 -44q-16 -76 -3 -121v-2h-88v2q5 7 8.5 13.5t7.5 15.5t6.5 14.5t5.5 17t4.5 16.5t5 19.5t4.5 19.5l4.5 22.5l4.5 22.5l38 178q16 74 -18 119v2l100 33l-58 -262q51 116 113 186.5t122 70.5
q42 0 58.5 -36t2.5 -99l-54 -240q-14 -56 -6.5 -79.5t46.5 -27.5v-2z" />
    <glyph glyph-name="o" unicode="o" horiz-adv-x="410" 
d="M390 316q0 -81 -32.5 -158t-87.5 -125t-114 -48q-61 0 -98.5 46.5t-37.5 127.5t32.5 158t87.5 125t114 48q61 0 98.5 -46.5t37.5 -127.5zM78 151q0 -148 82 -148q68 0 120 91t52 230q0 148 -82 148q-68 0 -120 -91t-52 -230z" />
    <glyph glyph-name="p" unicode="p" horiz-adv-x="447" 
d="M43 -225h-88v2q5 7 8.5 13.5t7.5 15.5t6.5 14.5t5.5 17t4.5 16.5t5 19.5t4.5 19.5l4.5 22.5l4.5 22.5l83 403q15 75 -18 119v2l100 33l-46 -207q80 202 196 202q106 0 106 -154q0 -140 -71.5 -245.5t-176.5 -105.5q-71 0 -104 55l-21 -100q-25 -117 -11 -163v-2zM183 3
q57 0 101 54t64.5 127.5t20.5 148.5q0 123 -70 123q-96 0 -184 -233l-10 -47q-18 -93 7 -133t71 -40z" />
    <glyph glyph-name="q" unicode="q" horiz-adv-x="444" 
d="M214 -225v2q14 19 24 47t14.5 46.5t14.5 67.5l64 302q-45 -118 -103.5 -186.5t-115.5 -68.5q-44 0 -68 33.5t-24 96.5q0 91 41 178t110.5 142t147.5 55q53 0 86 -23l28 24h2l-118 -552q-15 -70 -17.5 -100.5t4.5 -61.5v-2h-90zM137 29q98 0 213 298l11 52q9 41 -9.5 64.5
t-58.5 23.5q-57 0 -108 -54.5t-79 -133t-28 -153.5q0 -97 59 -97z" />
    <glyph glyph-name="r" unicode="r" horiz-adv-x="298" 
d="M10 0v2q5 7 8.5 13.5t7.5 15.5t6.5 14.5t5.5 17t4.5 16.5t5 19.5t4.5 19.5l4.5 22.5l4.5 22.5l38 178q16 74 -18 119v2l100 33l-53 -242q47 119 97.5 178t112.5 59l-31 -75h-2q-8 5 -21 5q-43 0 -80.5 -54.5t-92.5 -197.5l-10 -45q-16 -76 -3 -121v-2h-88z" />
    <glyph glyph-name="s" unicode="s" horiz-adv-x="313" 
d="M290 470l3 -95l-8 -2q-44 99 -104 99q-31 0 -49.5 -22t-18.5 -55q0 -28 15.5 -54t37.5 -48t44 -46t37.5 -57t15.5 -71q0 -63 -38.5 -98.5t-97.5 -35.5q-72 0 -116 38l-3 113l8 2q23 -66 55 -100.5t69 -34.5q35 0 59 26t24 67q0 30 -15 57.5t-37 49.5t-44 45t-37 54
t-15 66q0 59 36.5 90.5t90.5 31.5q52 0 88 -20z" />
    <glyph glyph-name="t" unicode="t" horiz-adv-x="264" 
d="M89 -15q-27 0 -42 22.5t-5 70.5l82 379h-55v2l121 90h2l-16 -74h118l-4 -18h-118l-81 -377q-12 -54 22 -54q22 0 47.5 25t44.5 53l9 -6q-61 -113 -125 -113z" />
    <glyph glyph-name="u" unicode="u" horiz-adv-x="444" 
d="M260 -9l57 213q-44 -97 -99 -158t-111 -61q-44 0 -66.5 36t-4.5 106l66 253q20 73 -32 93v2h103l-89 -349q-13 -48 -0.5 -72.5t42.5 -24.5q53 0 112.5 79t108.5 210l16 61q20 74 -31 94v2h105l-96 -367q-13 -39 -9.5 -61t34.5 -36v-1z" />
    <glyph glyph-name="v" unicode="v" horiz-adv-x="351" 
d="M105 -5h-10l-12 358q-2 54 -9.5 76t-33.5 44v2h89l12 -384l133 223q27 45 37 72.5t4.5 49t-30.5 37.5v2h106v-2z" />
    <glyph glyph-name="w" unicode="w" horiz-adv-x="526" 
d="M105 -5h-10l-12 358q-2 54 -9.5 76t-33.5 44v2h90l12 -380l138 235v23q-1 54 -9 75.5t-34 44.5v2h90l5 -378l122 217q26 45 35.5 72.5t4 49t-30.5 37.5v2h103v-2l-271 -478h-10l-4 298z" />
    <glyph glyph-name="x" unicode="x" horiz-adv-x="399" 
d="M89 2v-2h-114v2q35 24 56.5 46t48.5 59l98 133l-49 134q-27 76 -58 99v2h116v-2q-12 -8 -15.5 -28.5t8.5 -63.5l40 -109l67 87q32 40 37 71.5t-14 42.5v2h114v-2q-51 -34 -105 -105l-92 -117l55 -150q27 -76 58 -99v-2h-116v2q12 8 15.5 28.5t-8.5 63.5l-45 125l-75 -103
q-62 -85 -22 -114z" />
    <glyph glyph-name="y" unicode="y" horiz-adv-x="362" 
d="M-103 -225l14 68q60 1 105 30t100 127l-30 353q-5 63 -11.5 81.5t-31.5 38.5v2h85l32 -394l121 233q25 48 34 73.5t4 47.5t-29 38v2h102v-2l-254 -473q-37 -70 -70 -116t-64 -67.5t-53.5 -29.5t-53.5 -12z" />
    <glyph glyph-name="z" unicode="z" horiz-adv-x="370" 
d="M283 0h-298v7l329 451l-94 -3q-39 -1 -71.5 -20t-79.5 -64l-4 2l49 102h266v-9l-329 -451l130 4q45 1 77.5 22t82.5 70l4 -2z" />
    <glyph glyph-name="quoteleft" unicode="&#x2018;" horiz-adv-x="157" 
d="M217 755l5 -6q-76 -55 -76 -102q0 -24 36 -60v-2l-47 -41q-35 27 -35 63q0 67 117 148z" />
    <glyph glyph-name="quoteright" unicode="&#x2019;" horiz-adv-x="157" 
d="M93 544l-5 6q76 55 76 102q0 24 -36 60v2l47 41q35 -27 35 -63q0 -67 -117 -148z" />
    <glyph glyph-name="quotedblleft" unicode="&#x201c;" horiz-adv-x="292" 
d="M352 755l5 -6q-76 -55 -76 -102q0 -24 36 -60v-2l-47 -41q-35 27 -35 63q0 67 117 148zM217 755l5 -6q-76 -55 -76 -102q0 -24 36 -60v-2l-47 -41q-35 27 -35 63q0 67 117 148z" />
    <glyph glyph-name="quotedblright" unicode="&#x201d;" horiz-adv-x="292" 
d="M93 544l-5 6q76 55 76 102q0 24 -36 60v2l47 41q35 -27 35 -63q0 -67 -117 -148zM228 544l-5 6q76 55 76 102q0 24 -36 60v2l47 41q35 -27 35 -63q0 -67 -117 -148z" />
    </font>
</defs>
</svg>
