<?xml version="1.0" standalone="no"?>
<!DOCTYPE svg PUBLIC "-//W3C//DTD SVG 1.1//EN" "http://www.w3.org/Graphics/SVG/1.1/DTD/svg11.dtd" >
<svg xmlns="http://www.w3.org/2000/svg" xmlns:xlink="http://www.w3.org/1999/xlink" version="1.1">
<metadata>
Created by FontForge 20190801 at Thu Feb 17 17:47:19 2022
 By www-data
Copyright (C)2016 Commercial Type.
</metadata>
<defs>
<font id="CanelaThinTrial" horiz-adv-x="530" >
  <font-face 
    font-family="CanelaThinTrial"
    font-weight="100"
    font-stretch="normal"
    units-per-em="1000"
    panose-1="0 0 0 0 0 0 0 0 0 0"
    ascent="775"
    descent="-225"
    x-height="475"
    cap-height="732"
    bbox="0 -225 939 779"
    underline-thickness="20"
    underline-position="-80"
    unicode-range="U+0020-201D"
  />
<missing-glyph horiz-adv-x="161" 
 />
    <glyph glyph-name=".notdef" horiz-adv-x="161" 
 />
    <glyph glyph-name=".null" horiz-adv-x="0" 
 />
    <glyph glyph-name="nonmarkingreturn" horiz-adv-x="333" 
 />
    <glyph glyph-name="space" unicode=" " horiz-adv-x="150" 
 />
    <glyph glyph-name="exclam" unicode="!" horiz-adv-x="214" 
d="M136 732v-2l-22 -536h-14l-21 536v2h57zM107 -3q-19 0 -33 14t-14 33t14 33t33 14t33 -13.5t14 -33.5t-14 -33.5t-33 -13.5z" />
    <glyph glyph-name="quotedbl" unicode="&#x22;" horiz-adv-x="300" 
d="M80 542l-28 190h66l-28 -190h-10zM210 542l-28 190h66l-28 -190h-10z" />
    <glyph glyph-name="quotesingle" unicode="'" horiz-adv-x="170" 
d="M80 542l-28 190h66l-28 -190h-10z" />
    <glyph glyph-name="comma" unicode="," horiz-adv-x="204" 
d="M48 -148l-8 10q26 24 43 56t17 59q0 34 -37 71v2l56 42q36 -27 36 -68q0 -88 -107 -172z" />
    <glyph glyph-name="hyphen" unicode="-" horiz-adv-x="281" 
d="M251 263h-221v40h221v-40z" />
    <glyph glyph-name="period" unicode="." horiz-adv-x="198" 
d="M99 -3q-19 0 -33 14t-14 33t14 33t33 14t33 -13.5t14 -33.5t-14 -33.5t-33 -13.5z" />
    <glyph glyph-name="zero" unicode="0" horiz-adv-x="640" 
d="M319 -15q-116 0 -197.5 111t-81.5 270q0 160 81.5 270.5t197.5 110.5q117 0 199 -111t82 -270t-82.5 -270t-198.5 -111zM319 4q105 0 159.5 101.5t54.5 260.5t-54.5 260.5t-159.5 101.5t-158.5 -101t-53.5 -261t53.5 -261t158.5 -101z" />
    <glyph glyph-name="one" unicode="1" horiz-adv-x="307" 
d="M243 0h-155v2q30 31 40 55.5t10 67.5v500h-88v2q75 43 139 120h4v-622q0 -43 10 -67.5t40 -55.5v-2z" />
    <glyph glyph-name="two" unicode="2" horiz-adv-x="511" 
d="M440 0h-430v10q221 178 307.5 298t86.5 232q0 90 -43.5 139t-122.5 49q-70 0 -109.5 -37t-78.5 -114l-6 2l26 136q82 32 171 32q115 0 170 -54.5t55 -144.5q0 -116 -90.5 -228.5t-288.5 -267.5h261q47 0 70 17.5t55 66.5l8 -3z" />
    <glyph glyph-name="three" unicode="3" horiz-adv-x="529" 
d="M242 -15q-48 0 -99 12.5t-82 31.5l-21 126l6 2l37 -55.5t31.5 -40.5t36 -33t39.5 -16.5t53 -7.5q94 0 138.5 61t44.5 160q0 211 -184 211q-70 0 -128 -44l-9 10l299 278h-323l22 52h374v-10l-301 -280q37 14 84 14q99 0 164 -59.5t65 -167.5q0 -110 -68 -177t-179 -67z
" />
    <glyph glyph-name="four" unicode="4" horiz-adv-x="547" 
d="M328 0v2q24 31 32 55.5t8 67.5v65h-358v10l348 532h69l-392 -520h333v278h54v-278h90l-8 -22h-82v-65q0 -43 8 -67.5t32 -55.5v-2h-134z" />
    <glyph glyph-name="five" unicode="5" horiz-adv-x="526" 
d="M235 -15q-103 0 -177 44l-23 136l6 2q46 -84 90 -123.5t112 -39.5q90 0 135 62.5t45 162.5q0 102 -48 160t-144 58q-83 0 -141 -47l-10 8l53 324h339l-10 -52h-317l-42 -254q57 42 140 42q109 0 176 -62.5t67 -170.5q0 -112 -67.5 -181t-183.5 -69z" />
    <glyph glyph-name="six" unicode="6" horiz-adv-x="566" 
d="M285 -15q-104 0 -172 82.5t-68 200.5q0 62 20.5 127.5t62.5 133t118 126t176 92.5l4 -12q-117 -49 -191 -139.5t-104 -199.5q25 39 70.5 64.5t106.5 25.5q95 0 156.5 -66t61.5 -171q0 -112 -70.5 -188t-170.5 -76zM286 4q78 0 127.5 65t49.5 169q0 100 -46.5 157
t-129.5 57q-53 0 -98.5 -24.5t-66.5 -70.5q-11 -48 -11 -101q0 -101 44 -176.5t131 -75.5z" />
    <glyph glyph-name="seven" unicode="7" horiz-adv-x="467" 
d="M147 0h-71q93 338 352 680h-393l12 52h425v-10q-259 -369 -325 -722z" />
    <glyph glyph-name="eight" unicode="8" 
d="M264 -15q-102 0 -165.5 51.5t-63.5 139.5q0 70 43 125.5t130 74.5q-137 69 -137 191q0 78 54 129t140 51q82 0 135.5 -46t53.5 -121q0 -56 -34.5 -103.5t-115.5 -71.5q191 -81 191 -219q0 -98 -65.5 -149.5t-165.5 -51.5zM264 4q87 0 138.5 43.5t51.5 117.5
q0 64 -47.5 104.5t-176.5 96.5l-6 3q-146 -53 -146 -192q0 -81 48.5 -127t137.5 -46zM111 587q0 -62 42.5 -100t135.5 -76q122 56 122 170q0 68 -37.5 107.5t-107.5 39.5q-71 0 -113 -40t-42 -101z" />
    <glyph glyph-name="nine" unicode="9" horiz-adv-x="566" 
d="M144 -15l-4 12q117 49 191 139.5t104 199.5q-25 -39 -70.5 -64.5t-106.5 -25.5q-95 0 -156.5 66t-61.5 171q0 112 70.5 188t170.5 76q104 0 172 -82.5t68 -200.5q0 -62 -20.5 -127.5t-62.5 -133t-118 -126t-176 -92.5zM278 280q54 0 99.5 24.5t66.5 70.5q11 48 11 101
q0 101 -44 176.5t-131 75.5q-78 0 -127.5 -65t-49.5 -169q0 -99 46.5 -156.5t128.5 -57.5z" />
    <glyph glyph-name="question" unicode="?" horiz-adv-x="433" 
d="M152 194h-16q6 48 29 88.5t50.5 69.5t54.5 59.5t45 73.5t18 96q0 148 -123 148q-58 0 -94 -33.5t-64 -106.5l-7 2l19 124q84 32 151 32q84 0 131 -43t47 -122q0 -52 -21 -94t-52.5 -72.5t-65 -60.5t-62.5 -71.5t-40 -89.5zM150 -3q-19 0 -33 14t-14 33t14 33t33 14
q20 0 33.5 -13.5t13.5 -33.5t-13.5 -33.5t-33.5 -13.5z" />
    <glyph glyph-name="A" unicode="A" horiz-adv-x="625" 
d="M432 296l-134 378l-135 -378h269zM117 2v-2h-112v2q26 26 37.5 46t30.5 73l226 620h27l229 -629q21 -57 31 -74.5t34 -35.5v-2h-125v2q28 39 2 112l-58 162h-284l-57 -160q-27 -73 19 -114z" />
    <glyph glyph-name="B" unicode="B" horiz-adv-x="577" 
d="M286 0h-234v2q24 31 32 55t8 67v484q0 43 -8 67t-32 55v2q96 0 153 2t78 2q238 1 238 -169q0 -66 -34 -115t-98 -66q84 -9 124.5 -60t40.5 -123q0 -94 -67 -148.5t-201 -54.5zM146 391h170q78 0 114 49.5t36 119.5q0 156 -186 156q-71 0 -134 -5v-320zM283 20
q107 0 159 47.5t52 131.5q0 79 -43 125.5t-125 46.5h-180v-344q70 -7 137 -7z" />
    <glyph glyph-name="C" unicode="C" horiz-adv-x="742" 
d="M692 216l-20 -153q-36 -27 -111 -52.5t-159 -25.5q-167 0 -264.5 108.5t-97.5 273.5q0 164 106 272t282 108q129 0 240 -50l20 -141l-8 -2q-49 91 -110 132t-146 41q-156 0 -237 -99t-81 -261t76.5 -262t223.5 -100q107 0 172 53t106 160z" />
    <glyph glyph-name="D" unicode="D" horiz-adv-x="717" 
d="M52 0v2q24 37 32 65.5t8 78.5v440q0 50 -8 78.5t-32 65.5v2q67 0 139.5 2t141.5 2q162 0 253 -95.5t91 -271.5q0 -178 -94.5 -273.5t-269.5 -95.5h-261zM323 716l-177 1v-698l157 1q162 1 235 84t73 251q0 183 -72 271.5t-216 89.5z" />
    <glyph glyph-name="E" unicode="E" horiz-adv-x="585" 
d="M570 162l-45 -162h-473v2q39 61 39 113v502q0 32 -9 55.5t-30 57.5v2h423l39 -145l-8 -3q-7 9 -19 26t-18.5 26t-17 22.5t-17 20.5t-14.5 15t-15 11.5t-13 3.5l-246 6v-337h161q9 0 20 10t17.5 20t18 29.5t15.5 25.5h8v-185h-8q-4 6 -15 23t-18 27.5t-18 20t-20 9.5h-161
v-341l253 7q44 1 80.5 35.5t82.5 105.5z" />
    <glyph glyph-name="F" unicode="F" 
d="M187 2v-2h-135v2q24 30 32 53t8 63v496q0 40 -8 63t-32 53v2h432l31 -145l-8 -3q-8 11 -26 35.5t-26.5 36t-21 26t-22 21t-18.5 6.5l-246 6v-327h161q9 0 20 10t17.5 20t18 29.5t15.5 25.5h8v-185h-8q-4 6 -15 23t-18 27.5t-18 20t-20 9.5h-161v-250q0 -41 7.5 -63.5
t32.5 -52.5z" />
    <glyph glyph-name="G" unicode="G" horiz-adv-x="802" 
d="M728 91q-1 0 -17.5 -12t-22.5 -15t-24.5 -14.5t-30 -16.5t-32 -14.5t-38.5 -14t-41 -10t-48 -7.5t-51 -2q-174 0 -278.5 108.5t-104.5 272.5t109.5 272.5t291.5 108.5q141 0 256 -48l21 -143l-8 -3q-40 91 -105 132.5t-173 41.5q-160 0 -243 -101t-83 -261
q0 -78 17.5 -142t54.5 -113.5t99.5 -77t145.5 -27.5q115 0 185 41t70 118q0 76 -9.5 110t-36.5 56v2h136v-2q-24 -24 -32 -52t-8 -87v-100z" />
    <glyph glyph-name="H" unicode="H" horiz-adv-x="712" 
d="M52 0v2q24 31 32 55t8 67v484q0 43 -8 67t-32 55v2h134v-2q-25 -31 -32.5 -55t-7.5 -67v-220h420v220q0 43 -8 67t-32 55v2h134v-2q-25 -31 -32.5 -55t-7.5 -67v-484q0 -43 7.5 -67t32.5 -55v-2h-134v2q24 31 32 55t8 67v244h-420v-244q0 -43 7.5 -67t32.5 -55v-2h-134z
" />
    <glyph glyph-name="I" unicode="I" horiz-adv-x="238" 
d="M52 0l1 2q24 31 31.5 55t7.5 67v484q0 43 -8 67t-32 55v2h134v-2q-25 -31 -32.5 -55t-7.5 -67v-484q0 -43 8 -66.5t33 -55.5l-1 -2h-134z" />
    <glyph glyph-name="J" unicode="J" horiz-adv-x="355" 
d="M273 118q0 -64 -33.5 -98.5t-94.5 -34.5q-51 0 -98 22l-18 125l8 3q63 -130 125 -130q57 0 57 97v506q0 43 -7.5 67t-32.5 55v2h134v-2q-25 -31 -32.5 -55t-7.5 -67v-490z" />
    <glyph glyph-name="K" unicode="K" horiz-adv-x="604" 
d="M52 0l1 2q24 31 31.5 55t7.5 67v484q0 43 -8 67t-32 55v2h134v-2q-25 -31 -32.5 -55t-7.5 -67v-484q0 -43 8 -66.5t33 -55.5l-1 -2h-134zM594 0h-100l-312 381l227 240q55 58 2 109v2h165v-2q-13 -6 -25.5 -13t-21 -12.5t-19.5 -14t-16 -12t-15 -14t-12.5 -13t-14 -14.5
t-13.5 -14l-207 -219l234 -286q46 -57 69.5 -78t57.5 -38z" />
    <glyph glyph-name="L" unicode="L" horiz-adv-x="541" 
d="M480 0h-428v2q24 31 32 55t8 67v484q0 43 -8 67t-32 55v2h134v-2q-25 -31 -32.5 -55t-7.5 -67v-591l208 7q48 2 85.5 35t78.5 106l8 -3z" />
    <glyph glyph-name="M" unicode="M" horiz-adv-x="843" 
d="M187 0h-148v2q32 37 42.5 64t10.5 74v494q-3 34 -16 53.5t-45 42.5v2h110l284 -635l286 635h101v-2q-37 -26 -49 -50t-12 -73v-480q0 -43 8 -68t32 -57v-2h-133v2q25 32 33 57t8 68v527l-285 -632h-15l-287 635l3 -517q0 -47 14 -74t58 -64v-2z" />
    <glyph glyph-name="N" unicode="N" horiz-adv-x="716" 
d="M617 -3l-506 635l4 -494q0 -47 13.5 -73.5t56.5 -62.5v-2h-143v2q31 35 40.5 62t9.5 74v516q-39 56 -80 76v2h89l505 -634l-3 496q-1 48 -12 74.5t-48 61.5v2h133v-2q-31 -36 -40.5 -62t-9.5 -74v-594z" />
    <glyph glyph-name="O" unicode="O" horiz-adv-x="811" 
d="M405 -15q-156 0 -260.5 109t-104.5 271t104.5 272t260.5 110t261 -110t105 -272t-105 -271t-261 -109zM405 5q137 0 218.5 101t81.5 259t-82 260t-218 102t-217.5 -102t-81.5 -260t81.5 -259t217.5 -101z" />
    <glyph glyph-name="P" unicode="P" horiz-adv-x="547" 
d="M52 0v2q24 31 32 55t8 67v484q0 43 -8 67t-32 55v2h243q125 0 178.5 -55t53.5 -143q0 -102 -64.5 -163t-181.5 -61h-135v-186q0 -43 7.5 -67t32.5 -55v-2h-134zM281 712q-66 0 -135 -3v-379h134q97 0 144 55t47 149q0 101 -51 139.5t-139 38.5z" />
    <glyph glyph-name="Q" unicode="Q" horiz-adv-x="811" 
d="M679 -170q-62 0 -116 18t-90 47t-55 49.5t-33 41.5q-149 8 -247 115.5t-98 263.5q0 162 104.5 272t260.5 110t261 -110t105 -272q0 -161 -103.5 -269.5t-258.5 -110.5q60 -52 122.5 -79.5t116 -29t92.5 6t72 23.5l-25 -53q-38 -23 -108 -23zM405 5q137 0 218.5 101
t81.5 259t-82 260t-218 102t-217.5 -102t-81.5 -260t81.5 -259t217.5 -101z" />
    <glyph glyph-name="R" unicode="R" horiz-adv-x="618" 
d="M186 0h-134v2q24 31 32 55t8 67v484q0 43 -8 67t-32 55v2h257q105 0 155 -45.5t50 -126.5q0 -75 -35 -131t-103 -75l123 -231q27 -53 51 -80t58 -41v-2h-105l-183 345h-174v-221q0 -43 7.5 -67t32.5 -55v-2zM299 712q-79 0 -153 -1v-346h154q81 0 119 54.5t38 139.5
q0 74 -35.5 113.5t-122.5 39.5z" />
    <glyph glyph-name="S" unicode="S" horiz-adv-x="533" 
d="M428 717l20 -139l-8 -3q-29 84 -76.5 118t-113.5 34q-79 0 -118 -39t-39 -95q0 -36 13.5 -63t41 -47t54 -33.5t67.5 -30.5q15 -6 22 -9q39 -16 62 -27.5t54.5 -32.5t48.5 -42.5t29.5 -53.5t12.5 -71q0 -101 -71 -149.5t-180 -48.5q-103 0 -192 38l-20 142l8 3
q34 -86 86.5 -124.5t137.5 -38.5q87 0 132.5 42t45.5 116q0 35 -11.5 63.5t-26 46.5t-45 37t-49.5 28t-59 26q-35 15 -51 22.5t-45.5 23t-44 29.5t-31.5 34.5t-24 45.5t-7 56q0 83 58 127.5t157 44.5q88 0 162 -30z" />
    <glyph glyph-name="T" unicode="T" horiz-adv-x="634" 
d="M384 2v-2h-134v2q25 31 32.5 55t7.5 67v590l-153 -4q-6 0 -13.5 -5t-16.5 -15.5t-16 -20t-17.5 -27t-17 -27.5t-18 -30t-15.5 -27l-8 3l39 171h526l39 -171l-8 -3q-4 7 -15.5 27t-18 30t-17 27.5t-17.5 27t-16 20t-16.5 15.5t-13.5 5l-153 4v-590q0 -42 8 -66t32 -56z
" />
    <glyph glyph-name="U" unicode="U" horiz-adv-x="684" 
d="M353 -15q-120 0 -196.5 62.5t-76.5 190.5v367q0 44 -7.5 68.5t-32.5 56.5v2h134v-2q-40 -53 -40 -125v-364q0 -121 63 -177.5t165 -56.5q119 0 170 67.5t51 175.5v342q0 47 -14 74t-58 64v2h155v-2q-38 -37 -50 -64t-12 -74v-341q0 -56 -13 -102t-41 -84t-78.5 -59
t-118.5 -21z" />
    <glyph glyph-name="V" unicode="V" horiz-adv-x="624" 
d="M325 -8h-27l-226 626q-17 48 -32 70.5t-40 41.5v2h147v-2q-16 -18 -22 -45.5t6 -69.5l196 -552l185 517q33 91 -21 150v2h133v-2q-32 -24 -47 -51t-39 -94z" />
    <glyph glyph-name="W" unicode="W" horiz-adv-x="949" 
d="M284 -9h-27l-188 629q-16 55 -26 74t-33 36v2h139v-2q-1 -1 -5 -6t-5.5 -7.5t-5.5 -8.5t-5.5 -10t-4 -11t-3 -14t-0.5 -15.5t2 -18.5t5 -21l160 -538l170 476l-22 64q-17 52 -29.5 72t-36.5 38v2h147v-2l-5.5 -5.5t-6.5 -6t-6 -6.5t-5.5 -8.5t-4.5 -9.5t-3.5 -11
t-1.5 -12.5t0 -15t3 -17t6 -20.5l186 -543l151 510q23 87 -23 145v2h133v-2q-34 -25 -50.5 -54t-35.5 -91l-177 -594h-27l-180 530z" />
    <glyph glyph-name="X" unicode="X" horiz-adv-x="612" 
d="M141 2v-2h-136v2q38 24 64 53t60 82l152 243l-159 254q-26 41 -44 61.5t-43 34.5v2h151v-2q-48 -22 -5 -91l138 -220l117 176q43 65 44 90.5t-39 44.5v2h136v-2q-15 -10 -26.5 -19t-23.5 -23.5t-17.5 -22.5t-22 -33t-24.5 -37l-132 -196l189 -301q26 -41 44 -61.5
t43 -34.5v-2h-151v2q48 22 5 91l-167 266l-138 -222q-25 -40 -34 -56t-13.5 -34t4 -26.5t28.5 -18.5z" />
    <glyph glyph-name="Y" unicode="Y" horiz-adv-x="570" 
d="M215 0v2q24 27 32 48t8 56v236l-169 291q-23 40 -41.5 61t-44.5 36v2h155v-2q-48 -22 -9 -91l156 -270l135 226q21 36 25.5 63t-3 42.5t-25.5 29.5v2h136v-2q-10 -6 -18.5 -13t-14.5 -11.5t-13.5 -14.5t-11.5 -14t-12.5 -17.5t-11 -17.5t-13.5 -22.5t-15 -24.5l-151 -251
v-238q0 -36 7.5 -56.5t32.5 -47.5v-2h-134z" />
    <glyph glyph-name="Z" unicode="Z" horiz-adv-x="608" 
d="M529 0h-499v11l465 705l-263 -8q-51 -1 -91 -39t-80 -112l-8 3l47 172h464v-11l-464 -706l299 9q93 3 171 157l8 -3z" />
    <glyph glyph-name="a" unicode="a" horiz-adv-x="464" 
d="M180 21q39 0 75.5 15t58.5 37v177q-94 -12 -159 -48.5t-65 -100.5q0 -36 22.5 -58t67.5 -22zM378 -12q-31 0 -47 18.5t-17 49.5q-67 -71 -158 -71q-53 0 -85 27.5t-32 74.5q0 55 46.5 95.5t105.5 59t123 24.5v92q0 102 -113 102q-78 0 -140 -44l-5 7q67 67 174 67
q76 0 105 -33.5t29 -88.5v-302q0 -43 39 -43q24 0 48 24l3 -2q-7 -22 -26 -39.5t-50 -17.5z" />
    <glyph glyph-name="b" unicode="b" 
d="M247 -15q-98 0 -151 59l-24 -44h-10v673q0 38 -44 62v2l94 42v-374h3q53 85 164 85q93 0 152 -65.5t59 -173.5q0 -110 -63.5 -188t-179.5 -78zM259 3q74 0 123.5 65.5t49.5 172.5q0 101 -51 158.5t-129 56.5q-43 -1 -82 -22t-58 -50v-215q0 -82 42 -124t105 -42z" />
    <glyph glyph-name="c" unicode="c" horiz-adv-x="478" 
d="M438 113l5 -2q-19 -57 -69 -91.5t-118 -34.5q-96 0 -156 65.5t-60 173.5q0 121 73.5 193.5t177.5 72.5q62 0 134 -33l7 -94l-6 -2q-35 60 -68 85.5t-84 25.5q-81 0 -130 -58.5t-49 -162.5q0 -99 46 -159.5t132 -60.5q50 0 95.5 21t69.5 61z" />
    <glyph glyph-name="d" unicode="d" horiz-adv-x="543" 
d="M270 19q93 0 148 87v226q0 76 -38 108t-92 32q-83 0 -136.5 -66t-53.5 -168q0 -100 48 -159.5t124 -59.5zM423 86h-4q-56 -101 -178 -101q-91 0 -146 63.5t-55 171.5q0 110 73.5 190t188.5 80q68 0 116 -27v210q0 38 -44 62v2l94 42v-672q0 -45 9 -61t35 -26v-2l-89 -30
v98z" />
    <glyph glyph-name="e" unicode="e" horiz-adv-x="478" 
d="M260 472q-63 0 -105 -41.5t-55 -117.5l277 6v6q0 147 -117 147zM443 111q-19 -57 -69 -91.5t-119 -34.5q-97 0 -156 67.5t-59 177.5q0 115 65 187.5t158 72.5q83 0 132.5 -57.5t44.5 -134.5h-342q-3 -21 -3 -46q0 -100 46 -160.5t132 -60.5q50 0 95.5 21t69.5 61z" />
    <glyph glyph-name="f" unicode="f" horiz-adv-x="291" 
d="M76 0v2q24 37 24 137v318h-63v18h63v99q0 97 38 151t107 54q41 0 59 -14l12 -80l-6 -2q-31 44 -48 60t-40 16q-32 0 -52 -36.5t-20 -104.5v-143h118v-18h-118v-318q0 -97 23 -137v-2h-97z" />
    <glyph glyph-name="g" unicode="g" horiz-adv-x="477" 
d="M224 175q58 0 89 42.5t31 105.5t-30.5 106t-90.5 43q-59 0 -89 -43.5t-30 -105.5q0 -60 31.5 -104t88.5 -44zM460 -78q0 -66 -64 -106.5t-171 -40.5q-96 0 -153 32.5t-57 87.5q0 40 28 70.5t66 40.5q-72 16 -72 71q0 40 32.5 64t77.5 34q-44 21 -71.5 61t-27.5 87
q0 67 51.5 117t123.5 50q69 0 118 -43l119 54l2 -1v-64h-4l-107 2q49 -49 49 -115q0 -68 -52 -117t-124 -49q-34 0 -64 12q-76 -24 -76 -73q0 -46 87 -48l115 -4q89 -3 131.5 -36.5t42.5 -85.5zM242 -207q81 0 128 29t47 82q0 91 -147 95l-111 2q-20 0 -35 3
q-24 -6 -41.5 -33.5t-17.5 -62.5q0 -56 47.5 -85.5t129.5 -29.5z" />
    <glyph glyph-name="h" unicode="h" horiz-adv-x="517" 
d="M148 0h-94v2q22 39 22 117v541q0 47 -44 75v2l94 42v-376q74 87 180 87q69 0 104.5 -38.5t35.5 -107.5v-224q0 -47 3.5 -70.5t18.5 -47.5v-2h-94v2q22 39 22 117v214q0 118 -112 118q-95 0 -158 -66v-266q0 -45 4 -69.5t18 -47.5v-2z" />
    <glyph glyph-name="i" unicode="i" horiz-adv-x="197" 
d="M139 659q0 -17 -12 -29t-29 -12t-29 12t-12 29t12 29t29 12t29 -12t12 -29zM54 0v2q22 42 22 117v248q0 46 -44 74v2l94 52v-375q0 -46 4 -70.5t18 -47.5v-2h-94z" />
    <glyph glyph-name="j" unicode="j" horiz-adv-x="190" 
d="M139 659q0 -17 -12 -29t-29 -12t-29 12t-12 29t12 29t29 12t29 -12t12 -29zM13 -215l-2 5q35 19 50 48t15 92v437q0 46 -44 74v2l94 52l-2 -551q0 -79 -26.5 -115.5t-84.5 -43.5z" />
    <glyph glyph-name="k" unicode="k" horiz-adv-x="437" 
d="M54 0v2q22 39 22 117v554q0 38 -44 62v2l94 42v-659q0 -45 4 -70t18 -48v-2h-94zM427 0h-90l-186 249l142 161q35 40 -9 63v2h116v-2q-34 -15 -48.5 -27t-41.5 -44l-113 -128l136 -182q50 -66 94 -90v-2z" />
    <glyph glyph-name="l" unicode="l" horiz-adv-x="197" 
d="M54 0v2q22 39 22 117v554q0 38 -44 62v2l94 42v-659q0 -45 4 -70t18 -48v-2h-94z" />
    <glyph glyph-name="m" unicode="m" horiz-adv-x="748" 
d="M149 2v-2h-95v2q23 40 23 115v247q0 48 -45 78v2l91 53v-93l4 -1q60 87 161 87q92 0 111 -88l3 -1q63 89 162 89q61 0 87 -34.5t26 -101.5v-236q0 -80 22 -116v-2h-94v2q22 40 22 115v227q0 50 -19 78.5t-70 28.5q-72 0 -136 -68v-265q0 -45 4 -69t19 -47v-2h-95v2
q22 38 22 115v227q0 50 -19 78.5t-71 28.5q-73 0 -135 -66v-267q0 -80 22 -116z" />
    <glyph glyph-name="n" unicode="n" horiz-adv-x="517" 
d="M148 2v-2h-94v2q22 39 22 117v247q0 47 -44 75v2l90 52v-91l4 -1q74 87 180 87q69 0 104.5 -38.5t35.5 -107.5v-224q0 -47 3.5 -70.5t18.5 -47.5v-2h-94v2q22 39 22 117v214q0 118 -112 118q-98 0 -158 -66v-265q0 -46 4 -70.5t18 -47.5z" />
    <glyph glyph-name="o" unicode="o" horiz-adv-x="562" 
d="M281 -15q-101 0 -173.5 73.5t-72.5 178.5t72.5 179t173.5 74t173.5 -74t72.5 -179t-72.5 -178.5t-173.5 -73.5zM281 3q88 0 136 66t48 168t-48.5 168.5t-135.5 66.5t-135.5 -66.5t-48.5 -168.5t48 -168t136 -66z" />
    <glyph glyph-name="p" unicode="p" horiz-adv-x="544" 
d="M261 3q83 0 134 64.5t51 172.5q0 101 -50 158.5t-125 57.5q-46 0 -85.5 -21.5t-59.5 -50.5v-315q50 -66 135 -66zM148 -225h-94v2q22 39 22 117v472q0 47 -44 75v2l90 52v-89l7 -1q53 85 164 85q93 0 152 -65.5t59 -173.5q0 -70 -26 -129t-83.5 -98t-138.5 -39
q-79 0 -130 39v-129q0 -46 4 -70.5t18 -47.5v-2z" />
    <glyph glyph-name="q" unicode="q" horiz-adv-x="533" 
d="M395 -225v2q23 41 23 117v190q-55 -99 -177 -99q-91 0 -146 63.5t-55 171.5q0 110 73.5 190t188.5 80q78 0 127 -34l37 31h2v-592q0 -46 4 -70.5t18 -47.5v-2h-95zM270 19q93 0 148 87v226q0 76 -37.5 108t-92.5 32q-83 0 -136.5 -66t-53.5 -168q0 -100 48 -159.5
t124 -59.5z" />
    <glyph glyph-name="r" unicode="r" horiz-adv-x="309" 
d="M54 0v2q22 39 22 117v247q0 47 -44 75v2l90 52v-121l5 -1q11 10 35 37t38.5 40.5t39 26.5t49.5 13v-80h-2q-23 15 -73 15q-25 0 -88 -75v-230q0 -46 4 -70.5t18 -47.5v-2h-94z" />
    <glyph glyph-name="s" unicode="s" horiz-adv-x="375" 
d="M313 472l10 -89l-8 -2q-26 51 -56.5 71t-70.5 20q-47 0 -77 -24.5t-30 -63.5q0 -23 8.5 -39.5t30.5 -30t36.5 -20t51.5 -20.5q33 -13 53 -23t43 -27.5t34.5 -43t11.5 -58.5q0 -64 -45.5 -100.5t-130.5 -36.5q-72 0 -132 29l-10 102l8 2q25 -60 60.5 -87.5t87.5 -27.5
q58 0 89.5 29t31.5 73q0 24 -9.5 42.5t-30 32.5t-38 22t-48.5 20q-32 12 -51 21.5t-43.5 26t-36.5 40.5t-12 55q0 65 48 95t117 30q59 0 108 -18z" />
    <glyph glyph-name="t" unicode="t" horiz-adv-x="319" 
d="M185 -15q-42 0 -71 25.5t-29 84.5v362h-54v2l102 89h2v-73h148v-18h-148v-364q0 -77 73 -77q45 0 84 21l2 -4q-45 -48 -109 -48z" />
    <glyph glyph-name="u" unicode="u" horiz-adv-x="490" 
d="M362 -12v86q-72 -89 -167 -89q-64 0 -98.5 37.5t-34.5 102.5v284q0 42 -42 64v2h92v-334q0 -117 104 -117q80 0 141 63v322q0 44 -44 64v2h94v-364q0 -45 9.5 -61.5t35.5 -27.5v-2z" />
    <glyph glyph-name="v" unicode="v" horiz-adv-x="412" 
d="M204 -5l-145 376q-18 46 -29.5 67.5t-29.5 34.5v2h117v-2q-33 -30 -5 -104l111 -293l107 285q32 85 -12 112v2h99v-2q-23 -17 -35 -37t-29 -67l-143 -374h-6z" />
    <glyph glyph-name="w" unicode="w" horiz-adv-x="636" 
d="M190 -6h-6l-119 378q-24 78 -55 101v2h112v-2q-8 -10 -10.5 -34t6.5 -62l85 -294l106 288v1q-30 86 -54 101v2h107v-2q-22 -27 4 -108l92 -281l88 276q28 87 -14 113v2h99v-2q-23 -17 -34.5 -37t-26.5 -67l-123 -375h-6l-122 350z" />
    <glyph glyph-name="x" unicode="x" horiz-adv-x="423" 
d="M111 2v-2h-106v2q34 22 49.5 36t35.5 46l96 152l-85 137q-19 32 -43.5 60.5t-42.5 39.5v2h117v-2q-7 -9 -9 -17.5t3 -21.5t10.5 -23.5t19.5 -32.5l65 -106l72 115q34 56 4 86v2h106v-2q-34 -22 -49.5 -36t-35.5 -46l-86 -136l95 -153q19 -32 43.5 -60.5t42.5 -39.5v-2
h-117v2q7 9 9 17.5t-3 21.5t-10.5 23.5t-19.5 32.5l-75 121l-82 -130q-35 -55 -4 -86z" />
    <glyph glyph-name="y" unicode="y" horiz-adv-x="412" 
d="M22 -225l-2 55q22 1 47.5 10t57 37t47.5 70l25 65l-138 359q-18 46 -29.5 67.5t-29.5 34.5v2h117v-2q-32 -29 -5 -104l110 -292l108 284q32 85 -12 112v2h99v-2q-22 -17 -34 -36.5t-30 -67.5l-173 -450q-28 -72 -65.5 -105t-92.5 -39z" />
    <glyph glyph-name="z" unicode="z" horiz-adv-x="412" 
d="M347 0h-327v7l298 451l-152 -4q-9 0 -18 -2t-15 -4t-14.5 -8.5t-12 -8.5t-13 -12.5t-12 -13t-13.5 -16.5t-14 -17l-5 2l33 101h299v-8l-297 -450l168 3q41 1 64 20t61 72l5 -2z" />
    <glyph glyph-name="quoteleft" unicode="&#x2018;" horiz-adv-x="208" 
d="M154 755l6 -6q-52 -60 -52 -102q0 -26 38 -60v-2l-51 -41q-35 24 -35 60q0 70 94 151z" />
    <glyph glyph-name="quoteright" unicode="&#x2019;" horiz-adv-x="208" 
d="M54 544l-6 6q52 60 52 102q0 26 -38 60v2l51 41q35 -25 35 -60q0 -70 -94 -151z" />
    <glyph glyph-name="quotedblleft" unicode="&#x201c;" horiz-adv-x="338" 
d="M154 755l6 -6q-52 -60 -52 -102q0 -26 38 -60v-2l-51 -41q-35 24 -35 60q0 70 94 151zM284 755l6 -6q-52 -60 -52 -102q0 -26 38 -60v-2l-51 -41q-35 24 -35 60q0 70 94 151z" />
    <glyph glyph-name="quotedblright" unicode="&#x201d;" horiz-adv-x="348" 
d="M194 544l-6 6q52 60 52 102q0 26 -38 60v2l51 41q35 -25 35 -60q0 -70 -94 -151zM54 544l-6 6q52 60 52 102q0 26 -38 60v2l51 41q35 -25 35 -60q0 -70 -94 -151z" />
    </font>
</defs>
</svg>
