<?xml version="1.0" encoding="utf-8"?>
<!-- Generator: Adobe Illustrator 23.0.2, SVG Export Plug-In . SVG Version: 6.00 Build 0)  -->
<svg version="1.1" id="Layer_1" xmlns="http://www.w3.org/2000/svg" xmlns:xlink="http://www.w3.org/1999/xlink" x="0px" y="0px"
	 viewBox="0 0 970 115" style="enable-background:new 0 0 970 115;" xml:space="preserve">
<style type="text/css">
	.st0{fill:#FFFFFF;}
</style>
<g>
	<path class="st0" d="M163.88,36.27l-5.43,13.36c-4.59-3.9-9.05-5.57-15.87-5.57c-9.19,0-17.54,5.01-19.49,20.88v45.66h-13.37V32.65
		h13.37v30.77c1.81-21.86,8.91-31.88,24.5-31.88C154.14,31.53,159.84,33.48,163.88,36.27"/>
	<path class="st0" d="M251.43,2.58h13.36v63.2c3.34-23.39,14.76-34.66,31.19-34.66c19.21,0,29.51,12.25,29.51,31.46v48.03h-13.09
		V66.62c0-14.9-6.26-24.22-22.55-24.22c-13.09,0-21.72,7.1-25.06,24.5v43.71h-13.36V2.58z"/>
	<path class="st0" d="M352.21,110.61h-13.64V32.65h13.64V110.61z M356.39,23.74h-22v-2.73h22V23.74z"/>
	<path class="st0" d="M514.08,60.51V97.8h28.68c21.16,0,27.98-8.07,27.98-19.63c0-12.25-7.66-17.66-27.15-17.66H514.08z
		 M514.08,21.37v36.45l28.82,0.02c17.4,0,25.2-7.1,25.2-19.07c0-10.3-6.4-17.4-24.22-17.4H514.08z M500.57,8.98h46.36
		c23.95,0,34.25,10.3,34.25,25.2c0,16.98-14.48,24.64-37.87,24.92c25.48,0,40.65,5.57,40.65,23.95c0,17.54-13.64,27.56-37.87,27.56
		h-45.52V8.98z"/>
	<path class="st0" d="M659.69,71.63c0-16.57-9.75-28.26-27.29-28.26c-17.54,0-27.29,12.11-27.29,28.26
		c0,16.43,9.33,28.12,27.29,28.12C650.5,99.75,659.69,87.78,659.69,71.63 M591.89,71.63c0-22,14.62-40.51,40.51-40.51
		c25.89,0,40.51,18.1,40.51,40.51c0,22-13.92,40.37-40.51,40.37C605.95,112,591.89,93.9,591.89,71.63"/>
	<rect x="683.34" y="2.58" class="st0" width="13.37" height="108.03"/>
	<path class="st0" d="M775.5,71.35c0-16.15-9.33-27.98-27.56-27.98c-15.31,0-27.56,10.44-27.56,27.98c0,17.54,10.3,28.4,27.01,28.4
		C765.34,99.75,775.5,87.78,775.5,71.35 M743.76,31.53c16.71,0,28.54,10.86,31.74,32.3l-0.7-11.14V2.58h13.5v108.03h-13.5V91.67
		l0.84-14.34c-2.92,20.74-13.09,34.39-32.44,34.39c-20.05,0-36.06-14.34-36.06-40.09C707.15,46.01,725.52,31.53,743.76,31.53"/>
	<path class="st0" d="M888.24,32.65h13.36v32.3c3.48-22.83,15.17-33.83,31.46-33.83c19.77,0,29.65,12.25,29.65,31.46v48.03h-13.5
		V66.62c0-14.9-6.27-24.22-22.55-24.22c-13.09,0-21.72,7.1-25.06,24.5v43.71h-13.36V32.65z"/>
	<path class="st0" d="M48.2,42.81l6.68-16.85l6.54,16.85l14.96,37.65H33.25L48.2,42.81z M48.2,8.98L7.28,110.61H21.2l11-27.42h45.25
		l10.86,27.42h14.2L61.43,8.98H48.2z"/>
	<path class="st0" d="M228.84,78.96c-2.53,12.2-10.82,20.79-26.12,20.79c-17.54,0-27.01-11.69-27.01-28.12
		c0-16.15,10.02-28.26,27.29-28.26c14.92,0,23.06,7.86,25.64,19.93h13.57C239.06,44.77,226,31.12,203,31.12
		c-25.34,0-40.51,18.52-40.51,40.51c0,22.27,14.06,40.37,40.23,40.37c24.18,0,36.98-14.43,39.8-33.04H228.84z"/>
	<path class="st0" d="M427.19,84.31c-3.61,9.74-11.25,15.44-24.59,15.44c-18.1,0-26.73-11.55-26.73-27.98h65.99v-2.78
		c0-21.58-13.09-37.87-38.98-37.87c-25.62,0-40.23,18.8-40.23,40.79c0,22.69,12.81,40.09,40.51,40.09
		c21.16,0,33.83-11.14,38.29-27.56l-0.51-0.13H427.19z M403.02,43.37c17.23,0,25.57,10.24,25.74,25.71h-52.78
		C376.99,54.29,386.48,43.37,403.02,43.37z"/>
	<path class="st0" d="M863.28,84.31c-3.61,9.74-11.24,15.44-24.59,15.44c-18.1,0-26.73-11.55-26.73-27.98h65.99v-2.78
		c0-21.58-13.09-37.87-38.98-37.87c-25.62,0-40.23,18.8-40.23,40.79c0,22.69,12.81,40.09,40.51,40.09
		c21.16,0,33.83-11.14,38.29-27.56l-0.51-0.13H863.28z M839.11,43.37c17.23,0,25.57,10.24,25.74,25.71h-52.78
		C813.07,54.29,822.57,43.37,839.11,43.37z"/>
</g>
</svg>
