<svg width="25" height="25" viewBox="0 0 25 25" fill="none" xmlns="http://www.w3.org/2000/svg">
<path fill-rule="evenodd" clip-rule="evenodd" d="M14.8322 21.0209C14.0467 21.2055 13.2277 21.3031 12.3859 21.3031C6.50325 21.3031 1.73438 16.5343 1.73438 10.6516C1.73438 4.76887 6.50325 0 12.3859 0C17.5337 0 21.8285 3.65168 22.8213 8.50593C23.1215 9.75067 23.4072 11.6178 23.1882 13.7532C22.8962 16.5996 22.3515 18.3193 20.6682 20.6332C18.6591 23.3948 14.6119 24.6611 13.4114 24.986C13.314 25.0124 13.2465 24.8925 13.3156 24.819C13.7638 24.342 14.6828 23.283 14.8886 22.4183C14.9955 21.969 14.9482 21.4735 14.8322 21.0209Z" fill="black"/>
</svg>
