<svg width="1284" height="82" viewBox="0 0 1284 82" fill="none" xmlns="http://www.w3.org/2000/svg">
<g clip-path="url(#clip0_123_2)">
<path d="M17.1511 79.5193V79.3102C11.0864 73.1409 9.62254 69.8995 9.62254 62.0573L9.30885 10.7168L39.4231 77.2189H41.3052L70.583 11.2396V63.6257C70.583 70.8406 69.7465 73.8729 66.4004 79.3102V79.5193H83.2351V79.3102C79.8891 73.8729 79.0526 70.9451 79.0526 63.6257V18.1408C79.0526 10.2986 80.4119 7.47538 85.9538 3.1883V2.97917H71.7332L43.8147 66.2398L15.269 2.97917H0.316406V3.1883C5.12632 7.05713 6.79933 9.56664 7.21759 15.213V62.0573C7.21759 69.8995 6.06739 73.1409 1.15291 79.3102V79.5193H17.1511Z" fill="white"/>
<path d="M149.857 60.8025L149.02 60.4888C143.269 68.9584 136.995 76.8006 129.467 77.1143L106.672 77.8463V42.0857H119.847C123.716 42.0857 127.166 48.2549 129.885 51.3918H130.722V30.061H129.885C127.062 33.7207 123.716 39.9945 119.847 39.9945H106.672V4.65218L128.63 5.38412C132.499 5.59325 138.041 13.8537 143.269 20.0229L144.106 19.7093L140.028 2.97917H93.9153V3.1883C96.6339 8.41645 97.9933 11.7625 97.9933 17.618V64.8805C97.9933 70.6314 96.6339 74.082 93.9153 79.3102V79.5193H145.256L149.857 60.8025Z" fill="white"/>
<path d="M182.32 5.07043C195.077 5.07043 198.841 11.5533 198.841 21.0686C198.841 31.6294 194.972 40.9355 182.425 40.9355H169.982V5.17499C175.942 5.07043 180.334 5.07043 182.32 5.07043ZM157.225 79.5193H174.164V79.3102C170.714 73.9774 169.982 71.0497 169.982 63.8348V43.0268H183.993L202.919 79.5193H217.349V79.101C212.225 76.6961 209.716 73.8729 205.638 65.9261L192.881 41.6675C203.024 38.426 207.729 30.3747 207.729 21.0686C207.729 10.194 200.828 2.97917 183.993 2.97917H157.225V3.1883C160.571 8.52101 161.408 11.5533 161.408 18.6636V63.8348C161.408 70.9451 160.571 73.9774 157.225 79.3102V79.5193Z" fill="white"/>
<path d="M248.285 5.07043C261.042 5.07043 264.806 11.5533 264.806 21.0686C264.806 31.6294 260.937 40.9355 248.39 40.9355H235.947V5.17499C241.907 5.07043 246.298 5.07043 248.285 5.07043ZM223.19 79.5193H240.129V79.3102C236.679 73.9774 235.947 71.0497 235.947 63.8348V43.0268H249.958L268.884 79.5193H283.314V79.101C278.19 76.6961 275.681 73.8729 271.603 65.9261L258.846 41.6675C268.989 38.426 273.694 30.3747 273.694 21.0686C273.694 10.194 266.793 2.97917 249.958 2.97917H223.19V3.1883C226.536 8.52101 227.372 11.5533 227.372 18.6636V63.8348C227.372 70.9451 226.536 73.9774 223.19 79.3102V79.5193Z" fill="white"/>
<path d="M289.155 79.5193H306.094V79.3102C302.643 73.9774 301.911 71.0497 301.911 63.8348V18.6636C301.911 11.4488 302.643 8.52101 306.094 3.1883V2.97917H289.155V3.1883C292.605 8.52101 293.337 11.5533 293.337 18.6636V63.8348C293.337 70.9451 292.605 73.9774 289.155 79.3102V79.5193Z" fill="white"/>
<path d="M364.095 79.5193L368.8 60.8025L367.963 60.4888C362.212 70.004 356.043 76.8006 348.306 77.2189L329.38 77.9508V18.6636C329.38 11.4488 330.112 8.52101 333.562 3.1883V2.97917H316.623V3.1883C319.969 8.52101 320.805 11.5533 320.805 18.6636V63.8348C320.805 70.9451 319.969 73.9774 316.623 79.3102V79.5193H364.095Z" fill="white"/>
<path d="M422.503 79.5193L427.208 60.8025L426.372 60.4888C420.621 70.004 414.452 76.8006 406.714 77.2189L387.788 77.9508V18.6636C387.788 11.4488 388.52 8.52101 391.971 3.1883V2.97917H375.031V3.1883C378.377 8.52101 379.214 11.5533 379.214 18.6636V63.8348C379.214 70.9451 378.377 73.9774 375.031 79.3102V79.5193H422.503Z" fill="white"/>
<path d="M487.61 81.0877C508.418 81.0877 526.508 63.7303 526.508 41.3538C526.508 18.9773 508.418 1.41072 487.61 1.41072C466.907 1.41072 448.922 18.9773 448.922 41.3538C448.922 63.7303 466.907 81.0877 487.61 81.0877ZM487.61 78.9965C468.893 78.9965 458.751 62.8938 458.751 41.3538C458.751 19.8138 468.893 3.50198 487.61 3.50198C506.431 3.50198 516.679 19.8138 516.679 41.3538C516.679 62.9983 506.431 78.9965 487.61 78.9965Z" fill="white"/>
<path d="M534.035 24.5191C538.741 21.0686 545.328 14.8994 545.328 7.89363C545.328 5.07043 543.655 2.24723 541.25 0.574219L534.558 5.90693V6.11606C536.545 8.10276 538.845 11.1351 538.845 13.2263C538.845 16.6769 536.44 20.7549 533.408 23.8918L534.035 24.5191Z" fill="white"/>
<path d="M594.403 4.54762C589.803 2.77004 583.738 1.41072 577.464 1.41072C564.394 1.41072 554.147 7.26625 554.147 20.3366C554.147 33.7207 565.021 38.426 575.687 43.3405C585.202 47.6276 593.881 52.1238 593.881 63.5211C593.881 72.409 588.443 78.9965 577.36 78.9965C566.485 78.9965 559.166 73.1409 552.892 59.8614L552.055 60.1751L554.147 77.1143C560.42 79.5193 567.74 81.0877 574.85 81.0877C589.175 81.0877 601.723 75.0231 601.723 59.6523C601.723 45.4317 590.848 40.2036 580.287 35.3937C570.354 30.7929 560.839 27.0287 560.839 16.4678C560.839 9.35752 565.335 3.50198 574.955 3.50198C582.797 3.50198 590.012 7.57994 595.658 21.3823L596.495 21.0686L594.403 4.54762Z" fill="white"/>
<path d="M610.401 79.5193H627.34V79.3102C623.89 73.9774 623.158 71.0497 623.158 63.8348V41.0401H663.624V63.8348C663.624 70.9451 662.892 73.9774 659.441 79.3102V79.5193H676.38V79.3102C673.034 73.9774 672.198 71.0497 672.198 63.8348V18.6636C672.198 11.4488 673.034 8.52101 676.38 3.1883V2.97917H659.441V3.1883C662.892 8.52101 663.624 11.5533 663.624 18.6636V38.9488H623.158V18.6636C623.158 11.4488 623.89 8.52101 627.34 3.1883V2.97917H610.401V3.1883C613.747 8.52101 614.583 11.5533 614.583 18.6636V63.8348C614.583 70.9451 613.747 73.9774 610.401 79.3102V79.5193Z" fill="white"/>
<path d="M724.417 48.5686H698.694L711.66 13.3309L724.417 48.5686ZM694.721 79.3102C692.525 76.5915 690.12 71.5725 693.57 62.371L697.857 50.6599H725.148L730.377 64.985C732.991 71.9907 732.363 76.9052 730.795 79.3102V79.5193H747.42V79.3102C743.865 76.1733 742.506 73.7683 739.369 65.4033L715.947 2.0381H713.437L690.329 64.3576C687.61 71.6771 686.356 74.9185 681.964 79.3102V79.5193H694.721V79.3102Z" fill="white"/>
<path d="M780.551 81.0877C800.418 81.0877 806.901 68.2265 806.901 53.274V20.4412C806.901 12.599 808.26 9.35752 813.906 3.1883L813.697 2.97917H797.072V3.1883C803.241 9.35752 804.6 12.599 804.6 20.4412V53.3785C804.6 66.658 799.268 78.6828 782.433 78.6828C769.99 78.6828 760.579 72.3044 760.579 54.3196V18.8727C760.579 11.5533 761.938 7.6845 764.762 3.1883V2.97917H747.822V3.1883C751.273 8.62557 752.005 11.5533 752.005 18.8727V54.6333C752.005 73.4546 765.075 81.0877 780.551 81.0877Z" fill="white"/>
<path d="M889.993 70.004V61.4299C889.993 53.1694 890.725 49.8234 894.176 45.0135V44.8044H877.132V45.0135C880.896 49.5097 881.942 53.1694 881.942 62.371C881.942 73.3501 872.218 78.9965 858.624 78.9965C836.771 78.9965 828.092 62.4755 828.092 41.3538C828.092 20.1275 838.13 3.50198 859.565 3.50198C872.845 3.50198 880.896 9.25295 888.529 22.637L889.366 22.3233L887.275 6.42975C881.837 4.44305 872.531 1.41072 860.506 1.41072C834.261 1.41072 818.263 18.9773 818.263 41.2492C818.263 63.6257 833.843 81.0877 858.624 81.0877C875.564 81.0877 884.974 73.4546 889.993 70.004Z" fill="white"/>
<path d="M901.83 79.5193H918.769V79.3102C915.319 73.9774 914.587 71.0497 914.587 63.8348V41.0401H955.053V63.8348C955.053 70.9451 954.321 73.9774 950.871 79.3102V79.5193H967.81V79.3102C964.464 73.9774 963.627 71.0497 963.627 63.8348V18.6636C963.627 11.4488 964.464 8.52101 967.81 3.1883V2.97917H950.871V3.1883C954.321 8.52101 955.053 11.5533 955.053 18.6636V38.9488H914.587V18.6636C914.587 11.4488 915.319 8.52101 918.769 3.1883V2.97917H901.83V3.1883C905.176 8.52101 906.013 11.5533 906.013 18.6636V63.8348C906.013 70.9451 905.176 73.9774 901.83 79.3102V79.5193Z" fill="white"/>
<path d="M1035.61 79.833L1037.8 79.5193V20.3366C1037.8 12.4944 1038.85 9.25295 1043.56 3.1883V2.97917H1029.13V3.1883C1034.25 9.25295 1035.4 12.4944 1035.5 20.3366L1035.82 66.3443L987.091 2.97917H974.439V3.1883C978.831 6.22062 981.235 9.35752 982.699 14.5857V62.1618C982.699 70.004 981.654 73.2455 976.948 79.3102V79.5193H992.424V79.3102C986.464 73.2455 985.104 70.004 985.104 62.1618L984.686 13.54L1035.61 79.833Z" fill="white"/>
<path d="M1108.29 60.8025L1107.45 60.4888C1101.7 68.9584 1095.42 76.8006 1087.9 77.1143L1065.1 77.8463V42.0857H1078.28C1082.14 42.0857 1085.6 48.2549 1088.31 51.3918H1089.15V30.061H1088.31C1085.49 33.7207 1082.14 39.9945 1078.28 39.9945H1065.1V4.65218L1087.06 5.38412C1090.93 5.59325 1096.47 13.8537 1101.7 20.0229L1102.53 19.7093L1098.46 2.97917H1052.34V3.1883C1055.06 8.41645 1056.42 11.7625 1056.42 17.618V64.8805C1056.42 70.6314 1055.06 74.082 1052.34 79.3102V79.5193H1103.68L1108.29 60.8025Z" fill="white"/>
<path d="M1156.84 4.54762C1152.24 2.77004 1146.17 1.41072 1139.9 1.41072C1126.83 1.41072 1116.58 7.26625 1116.58 20.3366C1116.58 33.7207 1127.46 38.426 1138.12 43.3405C1147.64 47.6276 1156.32 52.1238 1156.32 63.5211C1156.32 72.409 1150.88 78.9965 1139.8 78.9965C1128.92 78.9965 1121.6 73.1409 1115.33 59.8614L1114.49 60.1751L1116.58 77.1143C1122.86 79.5193 1130.18 81.0877 1137.29 81.0877C1151.61 81.0877 1164.16 75.0231 1164.16 59.6523C1164.16 45.4317 1153.28 40.2036 1142.72 35.3937C1132.79 30.7929 1123.27 27.0287 1123.27 16.4678C1123.27 9.35752 1127.77 3.50198 1137.39 3.50198C1145.23 3.50198 1152.45 7.57994 1158.09 21.3823L1158.93 21.0686L1156.84 4.54762Z" fill="white"/>
<path d="M1213 4.54762C1208.4 2.77004 1202.34 1.41072 1196.06 1.41072C1182.99 1.41072 1172.74 7.26625 1172.74 20.3366C1172.74 33.7207 1183.62 38.426 1194.28 43.3405C1203.8 47.6276 1212.48 52.1238 1212.48 63.5211C1212.48 72.409 1207.04 78.9965 1195.96 78.9965C1185.08 78.9965 1177.76 73.1409 1171.49 59.8614L1170.65 60.1751L1172.74 77.1143C1179.02 79.5193 1186.34 81.0877 1193.45 81.0877C1207.77 81.0877 1220.32 75.0231 1220.32 59.6523C1220.32 45.4317 1209.45 40.2036 1198.89 35.3937C1188.95 30.7929 1179.44 27.0287 1179.44 16.4678C1179.44 9.35752 1183.93 3.50198 1193.55 3.50198C1201.4 3.50198 1208.61 7.57994 1214.26 21.3823L1215.09 21.0686L1213 4.54762Z" fill="white"/>
<path d="M1243.48 79.5193H1260.42V79.3102C1256.97 74.814 1256.23 72.3044 1256.23 66.2398V44.0724L1270.98 19.0819C1275.79 11.0305 1277.77 7.47538 1283.32 3.1883V2.97917H1268.47V3.1883C1271.29 6.11606 1273.17 11.2396 1267.95 20.1275L1255.5 41.2492L1240.45 14.3765C1237.83 9.6712 1237.52 5.07043 1240.65 3.1883V2.97917H1221V3.1883C1224.87 5.69781 1227.58 9.14839 1231.14 15.3176L1247.66 44.177V66.2398C1247.66 72.1999 1246.82 74.814 1243.48 79.3102V79.5193Z" fill="white"/>
<path d="M788.822 28.8509L768.967 49.7637H767.91L787.765 28.8509H788.822Z" fill="white" stroke="white"/>
<path d="M797.037 28.8509L777.182 49.7637H776.125L795.98 28.8509H797.037Z" fill="white" stroke="white"/>
</g>
<defs>
<clipPath id="clip0_123_2">
<rect width="1284" height="82" fill="white"/>
</clipPath>
</defs>
</svg>
