<svg width="463" height="43" viewBox="0 0 463 43" fill="none" xmlns="http://www.w3.org/2000/svg">
<g clip-path="url(#clip0_122_26)">
<path d="M22.9514 38V37.93C20.9214 35.865 20.4314 34.78 20.4314 32.155L20.3264 14.97L30.4064 37.23H31.0364L40.8364 15.145V32.68C40.8364 35.095 40.5564 36.11 39.4364 37.93V38H45.0714V37.93C43.9514 36.11 43.6714 35.13 43.6714 32.68V17.455C43.6714 14.83 44.1264 13.885 45.9814 12.45V12.38H41.2214L31.8764 33.555L22.3214 12.38H17.3164V12.45C18.9264 13.745 19.4864 14.585 19.6264 16.475V32.155C19.6264 34.78 19.2414 35.865 17.5964 37.93V38H22.9514ZM67.3713 31.735L67.0913 31.63C65.1663 34.465 63.0663 37.09 60.5463 37.195L52.9163 37.44V25.47H57.3263C58.6213 25.47 59.7763 27.535 60.6863 28.585H60.9663V21.445H60.6863C59.7413 22.67 58.6213 24.77 57.3263 24.77H52.9163V12.94L60.2663 13.185C61.5613 13.255 63.4163 16.02 65.1663 18.085L65.4463 17.98L64.0813 12.38H48.6463V12.45C49.5563 14.2 50.0113 15.32 50.0113 17.28V33.1C50.0113 35.025 49.5563 36.18 48.6463 37.93V38H65.8313L67.3713 31.735ZM78.2377 13.08C82.5077 13.08 83.7677 15.25 83.7677 18.435C83.7677 21.97 82.4727 25.085 78.2727 25.085H74.1077V13.115C76.1027 13.08 77.5727 13.08 78.2377 13.08ZM69.8377 38H75.5077V37.93C74.3527 36.145 74.1077 35.165 74.1077 32.75V25.785H78.7977L85.1327 38H89.9627V37.86C88.2477 37.055 87.4077 36.11 86.0427 33.45L81.7727 25.33C85.1677 24.245 86.7427 21.55 86.7427 18.435C86.7427 14.795 84.4327 12.38 78.7977 12.38H69.8377V12.45C70.9577 14.235 71.2377 15.25 71.2377 17.63V32.75C71.2377 35.13 70.9577 36.145 69.8377 37.93V38ZM100.318 13.08C104.588 13.08 105.848 15.25 105.848 18.435C105.848 21.97 104.553 25.085 100.353 25.085H96.1878V13.115C98.1828 13.08 99.6528 13.08 100.318 13.08ZM91.9178 38H97.5878V37.93C96.4328 36.145 96.1878 35.165 96.1878 32.75V25.785H100.878L107.213 38H112.043V37.86C110.328 37.055 109.488 36.11 108.123 33.45L103.853 25.33C107.248 24.245 108.823 21.55 108.823 18.435C108.823 14.795 106.513 12.38 100.878 12.38H91.9178V12.45C93.0378 14.235 93.3178 15.25 93.3178 17.63V32.75C93.3178 35.13 93.0378 36.145 91.9178 37.93V38ZM113.998 38H119.668V37.93C118.513 36.145 118.268 35.165 118.268 32.75V17.63C118.268 15.215 118.513 14.235 119.668 12.45V12.38H113.998V12.45C115.153 14.235 115.398 15.25 115.398 17.63V32.75C115.398 35.13 115.153 36.145 113.998 37.93V38ZM139.082 38L140.657 31.735L140.377 31.63C138.452 34.815 136.387 37.09 133.797 37.23L127.462 37.475V17.63C127.462 15.215 127.707 14.235 128.862 12.45V12.38H123.192V12.45C124.312 14.235 124.592 15.25 124.592 17.63V32.75C124.592 35.13 124.312 36.145 123.192 37.93V38H139.082ZM158.633 38L160.208 31.735L159.928 31.63C158.003 34.815 155.938 37.09 153.348 37.23L147.013 37.475V17.63C147.013 15.215 147.258 14.235 148.413 12.45V12.38H142.743V12.45C143.863 14.235 144.143 15.25 144.143 17.63V32.75C144.143 35.13 143.863 36.145 142.743 37.93V38H158.633ZM180.426 38.525C187.391 38.525 193.446 32.715 193.446 25.225C193.446 17.735 187.391 11.855 180.426 11.855C173.496 11.855 167.476 17.735 167.476 25.225C167.476 32.715 173.496 38.525 180.426 38.525ZM180.426 37.825C174.161 37.825 170.766 32.435 170.766 25.225C170.766 18.015 174.161 12.555 180.426 12.555C186.726 12.555 190.156 18.015 190.156 25.225C190.156 32.47 186.726 37.825 180.426 37.825ZM195.966 19.59C197.541 18.435 199.746 16.37 199.746 14.025C199.746 13.08 199.186 12.135 198.381 11.575L196.141 13.36V13.43C196.806 14.095 197.576 15.11 197.576 15.81C197.576 16.965 196.771 18.33 195.756 19.38L195.966 19.59ZM216.172 12.905C214.632 12.31 212.602 11.855 210.502 11.855C206.127 11.855 202.697 13.815 202.697 18.19C202.697 22.67 206.337 24.245 209.907 25.89C213.092 27.325 215.997 28.83 215.997 32.645C215.997 35.62 214.177 37.825 210.467 37.825C206.827 37.825 204.377 35.865 202.277 31.42L201.997 31.525L202.697 37.195C204.797 38 207.247 38.525 209.627 38.525C214.422 38.525 218.622 36.495 218.622 31.35C218.622 26.59 214.982 24.84 211.447 23.23C208.122 21.69 204.937 20.43 204.937 16.895C204.937 14.515 206.442 12.555 209.662 12.555C212.287 12.555 214.702 13.92 216.592 18.54L216.872 18.435L216.172 12.905ZM221.527 38H227.197V37.93C226.042 36.145 225.797 35.165 225.797 32.75V25.12H239.342V32.75C239.342 35.13 239.097 36.145 237.942 37.93V38H243.612V37.93C242.492 36.145 242.212 35.165 242.212 32.75V17.63C242.212 15.215 242.492 14.235 243.612 12.45V12.38H237.942V12.45C239.097 14.235 239.342 15.25 239.342 17.63V24.42H225.797V17.63C225.797 15.215 226.042 14.235 227.197 12.45V12.38H221.527V12.45C222.647 14.235 222.927 15.25 222.927 17.63V32.75C222.927 35.13 222.647 36.145 221.527 37.93V38ZM259.691 27.64H251.081L255.421 15.845L259.691 27.64ZM249.751 37.93C249.016 37.02 248.211 35.34 249.366 32.26L250.801 28.34H259.936L261.686 33.135C262.561 35.48 262.351 37.125 261.826 37.93V38H267.391V37.93C266.201 36.88 265.746 36.075 264.696 33.275L256.856 12.065H256.016L248.281 32.925C247.371 35.375 246.951 36.46 245.481 37.93V38H249.751V37.93ZM278.481 38.525C285.131 38.525 287.301 34.22 287.301 29.215V18.225C287.301 15.6 287.756 14.515 289.646 12.45L289.576 12.38H284.011V12.45C286.076 14.515 286.531 15.6 286.531 18.225V29.25C286.531 33.695 284.746 37.72 279.111 37.72C274.946 37.72 271.796 35.585 271.796 29.565V17.7C271.796 15.25 272.251 13.955 273.196 12.45V12.38H267.526V12.45C268.681 14.27 268.926 15.25 268.926 17.7V29.67C268.926 35.97 273.301 38.525 278.481 38.525ZM315.114 34.815V31.945C315.114 29.18 315.359 28.06 316.514 26.45V26.38H310.809V26.45C312.069 27.955 312.419 29.18 312.419 32.26C312.419 35.935 309.164 37.825 304.614 37.825C297.299 37.825 294.394 32.295 294.394 25.225C294.394 18.12 297.754 12.555 304.929 12.555C309.374 12.555 312.069 14.48 314.624 18.96L314.904 18.855L314.204 13.535C312.384 12.87 309.269 11.855 305.244 11.855C296.459 11.855 291.104 17.735 291.104 25.19C291.104 32.68 296.319 38.525 304.614 38.525C310.284 38.525 313.434 35.97 315.114 34.815ZM319.076 38H324.746V37.93C323.591 36.145 323.346 35.165 323.346 32.75V25.12H336.891V32.75C336.891 35.13 336.646 36.145 335.491 37.93V38H341.161V37.93C340.041 36.145 339.761 35.165 339.761 32.75V17.63C339.761 15.215 340.041 14.235 341.161 12.45V12.38H335.491V12.45C336.646 14.235 336.891 15.25 336.891 17.63V24.42H323.346V17.63C323.346 15.215 323.591 14.235 324.746 12.45V12.38H319.076V12.45C320.196 14.235 320.476 15.25 320.476 17.63V32.75C320.476 35.13 320.196 36.145 319.076 37.93V38ZM363.855 38.105L364.59 38V18.19C364.59 15.565 364.94 14.48 366.515 12.45V12.38H361.685V12.45C363.4 14.48 363.785 15.565 363.82 18.19L363.925 33.59L347.615 12.38H343.38V12.45C344.85 13.465 345.655 14.515 346.145 16.265V32.19C346.145 34.815 345.795 35.9 344.22 37.93V38H349.4V37.93C347.405 35.9 346.95 34.815 346.95 32.19L346.81 15.915L363.855 38.105ZM388.182 31.735L387.902 31.63C385.977 34.465 383.877 37.09 381.357 37.195L373.727 37.44V25.47H378.137C379.432 25.47 380.587 27.535 381.497 28.585H381.777V21.445H381.497C380.552 22.67 379.432 24.77 378.137 24.77H373.727V12.94L381.077 13.185C382.372 13.255 384.227 16.02 385.977 18.085L386.257 17.98L384.892 12.38H369.457V12.45C370.367 14.2 370.822 15.32 370.822 17.28V33.1C370.822 35.025 370.367 36.18 369.457 37.93V38H386.642L388.182 31.735ZM404.434 12.905C402.894 12.31 400.864 11.855 398.764 11.855C394.389 11.855 390.959 13.815 390.959 18.19C390.959 22.67 394.599 24.245 398.169 25.89C401.354 27.325 404.259 28.83 404.259 32.645C404.259 35.62 402.439 37.825 398.729 37.825C395.089 37.825 392.639 35.865 390.539 31.42L390.259 31.525L390.959 37.195C393.059 38 395.509 38.525 397.889 38.525C402.684 38.525 406.884 36.495 406.884 31.35C406.884 26.59 403.244 24.84 399.709 23.23C396.384 21.69 393.199 20.43 393.199 16.895C393.199 14.515 394.704 12.555 397.924 12.555C400.549 12.555 402.964 13.92 404.854 18.54L405.134 18.435L404.434 12.905ZM423.233 12.905C421.693 12.31 419.663 11.855 417.563 11.855C413.188 11.855 409.758 13.815 409.758 18.19C409.758 22.67 413.398 24.245 416.968 25.89C420.153 27.325 423.058 28.83 423.058 32.645C423.058 35.62 421.238 37.825 417.528 37.825C413.888 37.825 411.438 35.865 409.338 31.42L409.058 31.525L409.758 37.195C411.858 38 414.308 38.525 416.688 38.525C421.483 38.525 425.683 36.495 425.683 31.35C425.683 26.59 422.043 24.84 418.508 23.23C415.183 21.69 411.998 20.43 411.998 16.895C411.998 14.515 413.503 12.555 416.723 12.555C419.348 12.555 421.763 13.92 423.653 18.54L423.933 18.435L423.233 12.905ZM433.434 38H439.104V37.93C437.949 36.425 437.704 35.585 437.704 33.555V26.135L442.639 17.77C444.249 15.075 444.914 13.885 446.769 12.45V12.38H441.799V12.45C442.744 13.43 443.374 15.145 441.624 18.12L437.459 25.19L432.419 16.195C431.544 14.62 431.439 13.08 432.489 12.45V12.38H425.909V12.45C427.204 13.29 428.114 14.445 429.304 16.51L434.834 26.17V33.555C434.834 35.55 434.554 36.425 433.434 37.93V38Z" fill="black"/>
</g>
<defs>
<clipPath id="clip0_122_26">
<rect width="463" height="43" fill="white"/>
</clipPath>
</defs>
</svg>
