<?xml version="1.0" encoding="UTF-8"?><svg id="Layer_1" xmlns="http://www.w3.org/2000/svg" viewBox="0 0 202.82 159.33"><path d="M29,155.65H6.6L27.8,53.85C34.8,19.65,55,3.85,81,3.85c11.4,0,21.4,3.4,29.8,8.8,9.2-5.4,20-8.8,32.2-8.8,32.2,0,54.4,24,54.4,65,0,23-7.2,53-25.6,86.8h-24.2c19-33.6,27.4-61.6,27.4-85.6,0-26.4-10.4-45.8-33.8-45.8-5.4,0-10.2,1-14.8,2.6,14.2,17.6,21.2,41.6,21.2,59.4,0,26.2-15.6,43.4-39.2,43.4s-38-15.8-38-42.2c0-18.2,8-42.8,23.6-60.4-4-1.6-8.2-2.6-12.6-2.6-15.8,0-27,9.6-31.4,31l-21,100.2ZM125.4,85.85c0-16-5.6-34.4-15.8-46.8-11.6,13-17,32.2-17,47,0,15.6,6.6,23.2,16.6,23.2s16.2-8.4,16.2-23.4Z"/></svg>