<?xml version="1.0" encoding="utf-8"?>
<!-- Generator: Adobe Illustrator 23.0.2, SVG Export Plug-In . SVG Version: 6.00 Build 0)  -->
<svg version="1.1" id="Layer_1" xmlns="http://www.w3.org/2000/svg" xmlns:xlink="http://www.w3.org/1999/xlink" x="0px" y="0px"
	 viewBox="0 0 260 40" style="enable-background:new 0 0 260 40;" xml:space="preserve">
<g>
	<g>
		<path d="M51.1,14.6L49.7,18c-1.2-1-2.3-1.4-4.1-1.4c-2.4,0-4.5,1.3-5,5.4v11.8h-3.5V13.6h3.5v7.9c0.5-5.7,2.3-8.2,6.3-8.2
			C48.5,13.3,50,13.8,51.1,14.6"/>
		<path d="M73.7,5.9h3.5v16.3c0.9-6,3.8-9,8.1-9c5,0,7.6,3.2,7.6,8.1v12.4h-3.4V22.4c0-3.8-1.6-6.3-5.8-6.3c-3.4,0-5.6,1.8-6.5,6.3
			v11.3h-3.5L73.7,5.9L73.7,5.9z"/>
		<path d="M99.7,33.8h-3.5V13.6h3.5V33.8z M100.8,11.3h-5.7v-0.7h5.7V11.3z"/>
		<path d="M141.6,20.8v9.6h7.4c5.5,0,7.2-2.1,7.2-5.1c0-3.2-2-4.6-7-4.6H141.6z M141.6,10.7v9.4l7.4,0c4.5,0,6.5-1.8,6.5-4.9
			c0-2.7-1.7-4.5-6.3-4.5L141.6,10.7L141.6,10.7z M138.1,7.5h12c6.2,0,8.9,2.7,8.9,6.5c0,4.4-3.7,6.4-9.8,6.4
			c6.6,0,10.5,1.4,10.5,6.2c0,4.5-3.5,7.1-9.8,7.1h-11.8L138.1,7.5L138.1,7.5z"/>
		<path d="M179.2,23.7c0-4.3-2.5-7.3-7.1-7.3c-4.5,0-7.1,3.1-7.1,7.3c0,4.2,2.4,7.3,7.1,7.3C176.8,31,179.2,27.9,179.2,23.7
			 M161.7,23.7c0-5.7,3.8-10.5,10.5-10.5c6.7,0,10.5,4.7,10.5,10.5c0,5.7-3.6,10.4-10.5,10.4C165.3,34.1,161.7,29.5,161.7,23.7"/>
		<rect x="185.3" y="5.9" width="3.5" height="27.9"/>
		<path d="M209.1,23.6c0-4.2-2.4-7.2-7.1-7.2c-4,0-7.1,2.7-7.1,7.2s2.7,7.3,7,7.3C206.5,31,209.1,27.9,209.1,23.6 M200.9,13.3
			c4.3,0,7.4,2.8,8.2,8.3l-0.2-2.9v-13h3.5v27.9h-3.5v-4.9l0.2-3.7c-0.8,5.4-3.4,8.9-8.4,8.9c-5.2,0-9.3-3.7-9.3-10.4
			C191.5,17.1,196.2,13.3,200.9,13.3"/>
		<path d="M238.2,13.6h3.5V22c0.9-5.9,3.9-8.7,8.1-8.7c5.1,0,7.7,3.2,7.7,8.1v12.4H254V22.4c0-3.8-1.6-6.3-5.8-6.3
			c-3.4,0-5.6,1.8-6.5,6.3v11.3h-3.5L238.2,13.6L238.2,13.6z"/>
		<path d="M21.2,16.3l1.7-4.3l1.7,4.3l3.9,9.7H17.3L21.2,16.3z M21.2,7.5L10.6,33.8h3.6l2.8-7.1h11.7l2.8,7.1h3.7L24.6,7.5
			C24.6,7.5,21.2,7.5,21.2,7.5z"/>
		<path d="M67.8,25.6C67.2,28.8,65,31,61.1,31c-4.5,0-7-3-7-7.3c0-4.2,2.6-7.3,7.1-7.3c3.9,0,6,2,6.6,5.2h3.5
			c-0.8-4.8-4.2-8.3-10.1-8.3c-6.5,0-10.5,4.8-10.5,10.5c0,5.8,3.6,10.4,10.4,10.4c6.3,0,9.6-3.7,10.3-8.5L67.8,25.6L67.8,25.6z"/>
		<path d="M119.1,27c-0.9,2.5-2.9,4-6.4,4c-4.7,0-6.9-3-6.9-7.2h17.1V23c0-5.6-3.4-9.8-10.1-9.8c-6.6,0-10.4,4.9-10.4,10.5
			c0,5.9,3.3,10.4,10.5,10.4c5.5,0,8.7-2.9,9.9-7.1l-0.1,0L119.1,27L119.1,27z M112.9,16.4c4.5,0,6.6,2.6,6.7,6.6h-13.6
			C106.1,19.2,108.6,16.4,112.9,16.4z"/>
		<path d="M231.8,27c-0.9,2.5-2.9,4-6.4,4c-4.7,0-6.9-3-6.9-7.2h17.1V23c0-5.6-3.4-9.8-10.1-9.8c-6.6,0-10.4,4.9-10.4,10.5
			c0,5.9,3.3,10.4,10.5,10.4c5.5,0,8.7-2.9,9.9-7.1l-0.1,0L231.8,27L231.8,27z M225.6,16.4c4.5,0,6.6,2.6,6.7,6.6h-13.6
			C218.8,19.2,221.3,16.4,225.6,16.4z"/>
	</g>
	<g>
		<path d="M51.1,14.6L49.7,18c-1.2-1-2.3-1.4-4.1-1.4c-2.4,0-4.5,1.3-5,5.4v11.8h-3.5V13.6h3.5v7.9c0.5-5.7,2.3-8.2,6.3-8.2
			C48.5,13.3,50,13.8,51.1,14.6"/>
		<path d="M73.7,5.9h3.5v16.3c0.9-6,3.8-9,8.1-9c5,0,7.6,3.2,7.6,8.1v12.4h-3.4V22.4c0-3.8-1.6-6.3-5.8-6.3c-3.4,0-5.6,1.8-6.5,6.3
			v11.3h-3.5L73.7,5.9L73.7,5.9z"/>
		<path d="M99.7,33.8h-3.5V13.6h3.5V33.8z M100.8,11.3h-5.7v-0.7h5.7V11.3z"/>
		<path d="M141.6,20.8v9.6h7.4c5.5,0,7.2-2.1,7.2-5.1c0-3.2-2-4.6-7-4.6H141.6z M141.6,10.7v9.4l7.4,0c4.5,0,6.5-1.8,6.5-4.9
			c0-2.7-1.7-4.5-6.3-4.5L141.6,10.7L141.6,10.7z M138.1,7.5h12c6.2,0,8.9,2.7,8.9,6.5c0,4.4-3.7,6.4-9.8,6.4
			c6.6,0,10.5,1.4,10.5,6.2c0,4.5-3.5,7.1-9.8,7.1h-11.8L138.1,7.5L138.1,7.5z"/>
		<path d="M179.2,23.7c0-4.3-2.5-7.3-7.1-7.3c-4.5,0-7.1,3.1-7.1,7.3c0,4.2,2.4,7.3,7.1,7.3C176.8,31,179.2,27.9,179.2,23.7
			 M161.7,23.7c0-5.7,3.8-10.5,10.5-10.5c6.7,0,10.5,4.7,10.5,10.5c0,5.7-3.6,10.4-10.5,10.4C165.3,34.1,161.7,29.5,161.7,23.7"/>
		<rect x="185.3" y="5.9" width="3.5" height="27.9"/>
		<path d="M209.1,23.6c0-4.2-2.4-7.2-7.1-7.2c-4,0-7.1,2.7-7.1,7.2s2.7,7.3,7,7.3C206.5,31,209.1,27.9,209.1,23.6 M200.9,13.3
			c4.3,0,7.4,2.8,8.2,8.3l-0.2-2.9v-13h3.5v27.9h-3.5v-4.9l0.2-3.7c-0.8,5.4-3.4,8.9-8.4,8.9c-5.2,0-9.3-3.7-9.3-10.4
			C191.5,17.1,196.2,13.3,200.9,13.3"/>
		<path d="M238.2,13.6h3.5V22c0.9-5.9,3.9-8.7,8.1-8.7c5.1,0,7.7,3.2,7.7,8.1v12.4H254V22.4c0-3.8-1.6-6.3-5.8-6.3
			c-3.4,0-5.6,1.8-6.5,6.3v11.3h-3.5L238.2,13.6L238.2,13.6z"/>
		<path d="M21.2,16.3l1.7-4.3l1.7,4.3l3.9,9.7H17.3L21.2,16.3z M21.2,7.5L10.6,33.8h3.6l2.8-7.1h11.7l2.8,7.1h3.7L24.6,7.5
			C24.6,7.5,21.2,7.5,21.2,7.5z"/>
		<path d="M67.8,25.6C67.2,28.8,65,31,61.1,31c-4.5,0-7-3-7-7.3c0-4.2,2.6-7.3,7.1-7.3c3.9,0,6,2,6.6,5.2h3.5
			c-0.8-4.8-4.2-8.3-10.1-8.3c-6.5,0-10.5,4.8-10.5,10.5c0,5.8,3.6,10.4,10.4,10.4c6.3,0,9.6-3.7,10.3-8.5L67.8,25.6L67.8,25.6z"/>
		<path d="M119.1,27c-0.9,2.5-2.9,4-6.4,4c-4.7,0-6.9-3-6.9-7.2h17.1V23c0-5.6-3.4-9.8-10.1-9.8c-6.6,0-10.4,4.9-10.4,10.5
			c0,5.9,3.3,10.4,10.5,10.4c5.5,0,8.7-2.9,9.9-7.1l-0.1,0L119.1,27L119.1,27z M112.9,16.4c4.5,0,6.6,2.6,6.7,6.6h-13.6
			C106.1,19.2,108.6,16.4,112.9,16.4z"/>
		<path d="M231.8,27c-0.9,2.5-2.9,4-6.4,4c-4.7,0-6.9-3-6.9-7.2h17.1V23c0-5.6-3.4-9.8-10.1-9.8c-6.6,0-10.4,4.9-10.4,10.5
			c0,5.9,3.3,10.4,10.5,10.4c5.5,0,8.7-2.9,9.9-7.1l-0.1,0L231.8,27L231.8,27z M225.6,16.4c4.5,0,6.6,2.6,6.7,6.6h-13.6
			C218.8,19.2,221.3,16.4,225.6,16.4z"/>
	</g>
</g>
</svg>
